<svg width="20" height="19" viewBox="0 0 20 19" fill="none" xmlns="http://www.w3.org/2000/svg">
<g clip-path="url(#clip0_41_1414)">
<path d="M15.053 2.18202C14.546 2.49808 14.1391 2.83238 13.6733 3.01472C13.4434 3.10589 13.0719 2.99648 12.8302 2.86277C9.05659 0.765836 4.45753 2.24888 2.58253 6.18138C1.20281 9.08062 1.81602 12.6727 4.06838 14.9216C6.35022 17.207 9.79951 17.7418 12.5825 16.2527C15.4186 14.7332 16.9988 11.5483 16.5448 8.35125C16.5035 8.06558 16.6509 7.68266 16.8396 7.4517C17.1403 7.08094 17.5472 6.80742 17.9304 6.46705C19.4752 10.7095 17.5236 15.7422 13.5613 17.8816C9.36909 20.1488 4.26885 18.8602 1.60965 14.873C-1.00827 10.9466 -0.371479 5.53103 3.06602 2.40691C6.48583 -0.692897 11.7689 -0.826614 15.053 2.18202Z" fill="#023744"/>
<path d="M9.2158 9.18394C10.6191 7.79207 11.9693 6.28471 13.4906 4.98401C14.9882 3.70761 16.704 2.76552 18.6733 2.4373C18.7795 2.41907 18.8915 2.36436 18.9917 2.38868C19.3337 2.47377 19.6639 2.5771 20 2.68042C19.8113 2.96001 19.6816 3.31862 19.434 3.50704C15.8726 6.17531 12.7653 9.28119 10.5189 13.238C9.89976 14.326 8.68514 14.3746 7.98349 13.3656C6.73939 11.5969 5.53066 9.79783 4.36321 7.98049C4.2158 7.7556 4.27477 7.2025 4.45165 6.97761C5.20047 6.00512 6.16156 5.88964 7.04599 6.72841C7.85967 7.5064 8.55543 8.43026 9.2158 9.18394Z" fill="#023744"/>
</g>
<defs>
<clipPath id="clip0_41_1414">
<rect width="20" height="19" fill="white"/>
</clipPath>
</defs>
</svg>
