<svg width="37" height="37" viewBox="0 0 37 37" fill="none" xmlns="http://www.w3.org/2000/svg">
<g clip-path="url(#clip0_41_1547)">
<path d="M17.9245 0.00768046C8.01844 0.306996 -0.306942 8.55736 0.00765794 19.1101C0.306911 29.0643 8.60928 37.2993 19.0755 36.9923C29.089 36.693 37.023 28.4964 37.0077 18.4655C36.9923 8.10455 28.406 -0.306985 17.9245 0.00768046Z" fill="#023744"/>
<g clip-path="url(#clip1_41_1547)">
<path d="M20.6623 18.1236C21.0482 18.3639 21.4288 18.6042 21.8146 18.834C21.8675 18.8654 21.9521 18.8601 22.0208 18.8601C22.9035 18.8445 23.6277 19.1683 24.1985 19.8421C24.2778 19.9362 24.3994 20.0197 24.5157 20.0406C25.8318 20.2652 26.6035 21.0905 26.8625 22.318C27.0264 23.0807 27.0105 23.8903 26.9841 24.679C26.9471 25.9118 26.9048 27.155 26.5507 28.3511C25.8847 30.6286 24.3624 32.0493 22.0525 32.65C20.7681 32.9843 19.4572 33.0784 18.1463 32.9373C16.4602 32.7597 15.0753 31.9449 13.9759 30.6912C12.332 28.8108 11.8034 26.6013 12.2051 24.188C12.4483 22.7411 13.2094 21.6077 14.5626 20.9025C14.6471 20.8555 14.7317 20.7197 14.737 20.6257C14.7529 19.8683 14.7423 19.1109 14.7529 18.3535C14.7581 18.1497 14.663 18.1132 14.4833 18.108C14.0181 18.0923 13.5371 18.1184 13.0931 18.0139C11.8351 17.7214 11.0211 16.7028 11.0053 15.4283C10.9841 13.7725 11 12.1219 11 10.466C11 9.83923 11 9.21242 11.0053 8.58561C11.0211 7.56703 11.4704 6.78874 12.3426 6.24028C12.5963 6.08357 12.8606 6.00522 13.1618 6.00522C15.7783 6.01045 18.3948 6.02612 21.0112 6C21.6508 5.99478 22.1159 6.26117 22.5229 6.6686C23.0462 7.19095 23.3158 7.83343 23.3158 8.57516C23.3158 10.8787 23.3211 13.1875 23.3052 15.491C23.2999 16.8021 22.2216 17.9408 20.8949 18.0871C20.8103 18.0975 20.7311 18.1132 20.6623 18.1236ZM14.7529 22.6576C14.7264 22.6471 14.6947 22.6367 14.6683 22.6315C14.5679 22.7359 14.4569 22.8352 14.367 22.9449C13.9759 23.4045 13.7539 23.9478 13.6746 24.5328C13.442 26.2043 13.6957 27.787 14.7 29.1869C15.6673 30.5293 16.9465 31.3964 18.6538 31.48C19.695 31.5322 20.7311 31.4539 21.7459 31.1822C23.5484 30.7017 24.6954 29.5891 25.1447 27.787C25.4248 26.664 25.4565 25.5096 25.4988 24.3656C25.52 23.7858 25.5094 23.1956 25.4037 22.6262C25.2292 21.6965 24.4628 21.3204 23.5695 21.639C23.5325 21.6547 23.4849 21.6547 23.4268 21.6651C23.3845 21.5345 23.3475 21.4092 23.3052 21.289C23.0356 20.5369 22.5282 20.2496 21.7406 20.401C21.6349 20.4219 21.5292 20.4376 21.4393 20.4846C21.2808 20.5682 21.1962 20.5421 21.1169 20.3749C20.6676 19.4504 19.399 19.3668 18.7859 19.7847C18.7225 19.8265 18.659 19.863 18.5639 19.9257C18.5533 19.8003 18.5428 19.7168 18.5428 19.6332C18.5428 18.5467 18.5533 17.455 18.5428 16.3685C18.5375 15.6738 18.5375 14.9739 18.474 14.2844C18.4265 13.7829 18.1569 13.5427 17.7446 13.48C17.1579 13.386 16.7139 13.5374 16.5077 13.9971C16.3703 14.3053 16.2804 14.6657 16.2804 15C16.2593 16.6872 16.2699 18.3743 16.2699 20.0667C16.2699 21.6338 16.2752 23.2008 16.2699 24.7678C16.2699 25.2693 15.9422 25.614 15.4929 25.6088C15.0647 25.6036 14.7634 25.2536 14.7581 24.7574C14.7581 24.4858 14.7581 24.2194 14.7634 23.9478C14.7529 23.5194 14.7529 23.0859 14.7529 22.6576ZM21.3601 11.9913C21.3653 10.8683 21.3653 9.74521 21.3653 8.62217C21.3653 8.13117 21.0376 7.81254 20.5249 7.80731C19.8378 7.80209 19.1506 7.80731 18.4635 7.80731C16.9147 7.80731 15.3607 7.80731 13.812 7.81254C13.2411 7.81776 12.9768 8.08938 12.9663 8.65351C12.961 9.05572 12.961 9.4527 12.961 9.8549C12.961 11.6727 12.9557 13.4956 12.9557 15.3134C12.9557 15.8305 13.2728 16.1439 13.7909 16.1544C14.0181 16.1596 14.2507 16.1439 14.478 16.1544C14.6841 16.1648 14.7581 16.0969 14.7581 15.888C14.7529 15.4335 14.7423 14.9791 14.7793 14.5299C14.922 12.7226 16.4126 11.6309 18.178 12.0279C19.1295 12.242 19.806 12.9942 19.9435 14.0754C20.0175 14.6761 20.0016 15.2925 20.0386 15.8984C20.0439 15.982 20.1232 16.123 20.1866 16.1387C20.9266 16.2797 21.3495 15.935 21.3548 15.1985C21.3601 14.1329 21.3601 13.0621 21.3601 11.9913Z" fill="white"/>
</g>
</g>
<defs>
<clipPath id="clip0_41_1547">
<rect width="37" height="37" fill="white"/>
</clipPath>
<clipPath id="clip1_41_1547">
<rect width="16" height="27" fill="white" transform="translate(11 6)"/>
</clipPath>
</defs>
</svg>
