<svg width="31" height="34" viewBox="0 0 31 34" fill="none" xmlns="http://www.w3.org/2000/svg">
<g filter="url(#filter0_d_40_782)">
<rect x="3" width="25" height="25" rx="12.5" fill="white"/>
<g filter="url(#filter1_i_40_782)">
<rect x="5.67188" y="2.86719" width="19.4609" height="19.4609" rx="9.73047" fill="url(#paint0_linear_40_782)" stroke="url(#paint1_linear_40_782)" stroke-width="3"/>
</g>
<g clip-path="url(#clip0_40_782)">
<path d="M15.3053 21.2902C20.1596 21.2902 24.0949 17.3549 24.0949 12.5006C24.0949 7.64619 20.1596 3.71094 15.3053 3.71094C10.4509 3.71094 6.51562 7.64619 6.51562 12.5006C6.51562 17.3549 10.4509 21.2902 15.3053 21.2902Z" fill="#F7AB53" fill-opacity="0.63"/>
<path d="M15.3053 21.0712C20.0387 21.0712 23.876 17.234 23.876 12.5006C23.876 7.76711 20.0387 3.92989 15.3053 3.92989C10.5718 3.92989 6.73462 7.76711 6.73462 12.5006C6.73462 17.234 10.5718 21.0712 15.3053 21.0712Z" fill="#FFD798"/>
<path d="M15.3052 19.4641C19.1511 19.4641 22.2687 16.3464 22.2687 12.5006C22.2687 8.65471 19.1511 5.53703 15.3052 5.53703C11.4594 5.53703 8.34167 8.65471 8.34167 12.5006C8.34167 16.3464 11.4594 19.4641 15.3052 19.4641Z" fill="#F7AB53" fill-opacity="0.63"/>
<path d="M15.3053 19.2372C19.0259 19.2372 22.042 16.2211 22.042 12.5006C22.042 8.78 19.0259 5.76388 15.3053 5.76388C11.5847 5.76388 8.5686 8.78 8.5686 12.5006C8.5686 16.2211 11.5847 19.2372 15.3053 19.2372Z" fill="#D18729"/>
<path d="M22.0408 12.5006C22.0408 12.5875 22.0397 12.6744 22.0363 12.7613C21.8986 9.161 18.9383 6.28417 15.3053 6.28417C11.6723 6.28417 8.71081 9.161 8.57312 12.7601C8.56973 12.6732 8.5686 12.5875 8.5686 12.4994C8.5686 8.77953 11.5843 5.76275 15.3053 5.76275C19.0263 5.76275 22.0408 8.77953 22.0408 12.5006Z" fill="#CC8232"/>
<path d="M24.0938 12.5006C24.0938 17.296 20.252 21.1954 15.4779 21.2879C15.4204 21.2891 15.3628 21.2902 15.3041 21.2902C15.0197 21.2902 14.7398 21.2766 14.4622 21.2507C14.0717 21.2134 13.688 21.1514 13.3144 21.0645C12.284 20.8263 11.3224 20.4065 10.4658 19.8399C10.2525 19.6988 10.0448 19.5487 9.84503 19.3896C9.15093 18.8388 8.54261 18.1865 8.04151 17.454C7.85867 17.1877 7.69164 16.91 7.53815 16.6234C7.39594 16.3559 7.26728 16.0805 7.15216 15.7972C7.02801 15.4914 6.9208 15.1765 6.83164 14.8537C6.67363 14.2838 6.57206 13.6912 6.53255 13.0818C6.5224 12.8888 6.51562 12.6947 6.51562 12.5006C6.51562 12.408 6.51675 12.3166 6.52014 12.2241C6.52804 12.4972 6.54948 12.7669 6.58221 13.0333C6.65444 13.6168 6.78311 14.1822 6.96368 14.7239C7.06639 15.0343 7.18602 15.3356 7.32258 15.6291C7.44786 15.9011 7.58781 16.1663 7.74017 16.4236C7.90382 16.7001 8.08327 16.9665 8.27513 17.2227C8.80671 17.9303 9.44324 18.5556 10.1622 19.0747C10.371 19.226 10.5865 19.367 10.8077 19.5002C11.7061 20.0363 12.7072 20.4166 13.776 20.6051C14.1699 20.674 14.5728 20.7169 14.9836 20.7315C15.0908 20.736 15.1992 20.7372 15.3064 20.7372C15.5614 20.7372 15.8131 20.7259 16.0626 20.7044C20.472 20.3286 23.9527 16.6967 24.0915 12.2241C24.0926 12.3155 24.0938 12.408 24.0938 12.5006Z" fill="#E59638"/>
<path d="M11.3099 17.9247L9.84612 19.3885C9.15203 18.8377 8.54371 18.1854 8.0426 17.4529L8.27284 17.2227L9.52786 15.9677C9.98833 16.7317 10.5944 17.3976 11.3099 17.9247Z" fill="#F7AB53" fill-opacity="0.63"/>
<path d="M22.1932 7.04147L20.7294 8.50528C20.2023 7.78974 19.5364 7.18255 18.7723 6.7232L20.2576 5.23795C20.9901 5.73905 21.6435 6.34737 22.1932 7.04147Z" fill="#F7AB53" fill-opacity="0.63"/>
<path d="M9.08096 15.0806L7.5404 16.6211C7.3982 16.3536 7.26954 16.0783 7.15442 15.795L8.77736 14.172C8.85749 14.4847 8.95907 14.7883 9.08096 15.0806Z" fill="#F7AB53" fill-opacity="0.63"/>
<path d="M19.4258 4.73572L17.8852 6.27627C17.5918 6.15438 17.2893 6.05281 16.9767 5.9738L18.5996 4.35086C18.8829 4.46372 19.1583 4.59351 19.4258 4.73572Z" fill="#F7AB53" fill-opacity="0.63"/>
<path d="M18.1651 18.6007L16.0614 20.7044L15.479 21.2868C15.4214 21.2879 15.3639 21.2891 15.3052 21.2891C15.0208 21.2891 14.7409 21.2755 14.4633 21.2496L16.6008 19.112C17.1482 19.0048 17.673 18.8321 18.1651 18.6007Z" fill="#F7AB53" fill-opacity="0.63"/>
<path d="M24.0937 12.5006C24.0937 12.5581 24.0937 12.6168 24.0915 12.6744L21.4054 15.3605C21.6368 14.8684 21.8094 14.3436 21.9167 13.7962L24.0542 11.6586C24.0802 11.9351 24.0937 12.2162 24.0937 12.5006Z" fill="#F7AB53" fill-opacity="0.63"/>
<path d="M8.56855 12.5006C8.56855 12.7003 8.57758 12.8978 8.59451 13.0931L6.96253 14.7228L6.83387 14.8515C6.67587 14.2815 6.57429 13.689 6.53479 13.0795L8.77508 10.8392C8.63965 11.3708 8.56855 11.9272 8.56855 12.5006Z" fill="#F7AB53" fill-opacity="0.63"/>
<path d="M17.6572 4.02921L15.8966 5.78984C15.7013 5.77291 15.5038 5.76388 15.3041 5.76388C14.7319 5.76388 14.1755 5.83499 13.645 5.97042L15.8853 3.73013C16.4948 3.76963 17.0873 3.8712 17.6572 4.02921Z" fill="#F7AB53" fill-opacity="0.63"/>
<path d="M15.1439 19.235L13.3155 21.0633C12.2851 20.8252 11.3235 20.4054 10.4669 19.8388L10.8066 19.4991L11.9589 18.3468C12.9002 18.8885 13.9859 19.2068 15.1439 19.235Z" fill="#F7AB53" fill-opacity="0.63"/>
<path d="M23.868 10.5108L22.0397 12.3392C22.0126 11.1812 21.6932 10.0955 21.1526 9.1531L22.6435 7.66221C23.2089 8.51882 23.6288 9.47927 23.868 10.5108Z" fill="#F7AB53" fill-opacity="0.63"/>
<path d="M10.1599 19.0747L9.84612 19.3885C9.15203 18.8377 8.54371 18.1854 8.0426 17.4529L8.27284 17.2227C8.80554 17.9303 9.44208 18.5556 10.1599 19.0747Z" fill="#D18729"/>
<path d="M7.73904 16.4225L7.5404 16.6211C7.3982 16.3536 7.26954 16.0783 7.15442 15.795L7.32145 15.6279C7.44673 15.9011 7.58668 16.1663 7.73904 16.4225Z" fill="#D18729"/>
<path d="M16.0614 20.7044L15.479 21.2868C15.4214 21.2879 15.3639 21.2891 15.3052 21.2891C15.0208 21.2891 14.7409 21.2755 14.4633 21.2496L14.9813 20.7315C15.0885 20.736 15.1969 20.7372 15.3041 20.7372C15.5591 20.7372 15.8119 20.7259 16.0614 20.7044Z" fill="#D18729"/>
<path d="M6.96253 14.7228L6.83387 14.8515C6.67587 14.2815 6.57429 13.689 6.53479 13.0795L6.58219 13.0321C6.65329 13.6156 6.78308 14.1811 6.96253 14.7228Z" fill="#D18729"/>
<path d="M13.7738 20.604L13.3144 21.0633C12.284 20.8252 11.3224 20.4054 10.4658 19.8388L10.8055 19.4991C11.7039 20.0363 12.7061 20.4166 13.7738 20.604Z" fill="#D18729"/>
<path d="M15.2231 17.139V7.71256H15.7964V17.139H15.2231ZM16.4676 11.0118C16.4489 10.7663 16.3615 10.5749 16.2054 10.4374C16.0516 10.2999 15.8174 10.2312 15.5027 10.2312C15.3023 10.2312 15.138 10.257 15.0099 10.3085C14.884 10.3576 14.7908 10.4251 14.7302 10.511C14.6696 10.597 14.6381 10.6952 14.6358 10.8056C14.6311 10.8964 14.6463 10.9787 14.6813 11.0523C14.7185 11.1235 14.7768 11.1886 14.856 11.2475C14.9353 11.3039 15.0367 11.3555 15.1602 11.4021C15.2837 11.4488 15.4305 11.4905 15.6006 11.5273L16.1879 11.6599C16.5841 11.7483 16.9232 11.8649 17.2052 12.0097C17.4872 12.1545 17.7179 12.3251 17.8973 12.5215C18.0768 12.7155 18.2084 12.9339 18.2923 13.177C18.3786 13.42 18.4228 13.6851 18.4252 13.9723C18.4228 14.4682 18.3052 14.888 18.0721 15.2316C17.8391 15.5753 17.5058 15.8367 17.0723 16.0159C16.6412 16.1951 16.1227 16.2847 15.5167 16.2847C14.8945 16.2847 14.3515 16.1878 13.8877 15.9939C13.4263 15.7999 13.0674 15.5017 12.811 15.0991C12.557 14.694 12.4288 14.1761 12.4265 13.5452H14.2723C14.2839 13.7759 14.3387 13.9699 14.4366 14.127C14.5344 14.2841 14.6719 14.4031 14.849 14.4841C15.0285 14.5652 15.2417 14.6057 15.4888 14.6057C15.6962 14.6057 15.8698 14.5787 16.0096 14.5247C16.1495 14.4706 16.2555 14.3958 16.3277 14.3C16.4 14.2043 16.4373 14.0951 16.4396 13.9723C16.4373 13.8569 16.4011 13.7563 16.3312 13.6704C16.2637 13.582 16.1518 13.5035 15.9956 13.4347C15.8395 13.3635 15.6286 13.2972 15.3629 13.2359L14.6498 13.0739C14.0159 12.929 13.516 12.6872 13.1501 12.3485C12.7866 12.0072 12.606 11.5421 12.6083 10.9529C12.606 10.4742 12.7271 10.0557 12.9718 9.69727C13.2189 9.33641 13.5603 9.05534 13.9961 8.85404C14.4342 8.65275 14.9364 8.5521 15.5027 8.5521C16.0807 8.5521 16.5806 8.65398 17.0024 8.85773C17.4242 9.06148 17.7493 9.34869 17.9777 9.71936C18.2084 10.0876 18.325 10.5184 18.3273 11.0118H16.4676Z" fill="#FFD798"/>
</g>
</g>
<defs>
<filter id="filter0_d_40_782" x="0" y="0" width="31" height="34" filterUnits="userSpaceOnUse" color-interpolation-filters="sRGB">
<feFlood flood-opacity="0" result="BackgroundImageFix"/>
<feColorMatrix in="SourceAlpha" type="matrix" values="0 0 0 0 0 0 0 0 0 0 0 0 0 0 0 0 0 0 127 0" result="hardAlpha"/>
<feOffset dy="6"/>
<feGaussianBlur stdDeviation="1.5"/>
<feComposite in2="hardAlpha" operator="out"/>
<feColorMatrix type="matrix" values="0 0 0 0 0 0 0 0 0 0 0 0 0 0 0 0 0 0 0.5 0"/>
<feBlend mode="normal" in2="BackgroundImageFix" result="effect1_dropShadow_40_782"/>
<feBlend mode="normal" in="SourceGraphic" in2="effect1_dropShadow_40_782" result="shape"/>
</filter>
<filter id="filter1_i_40_782" x="4.17188" y="1.36719" width="24.4609" height="25.4609" filterUnits="userSpaceOnUse" color-interpolation-filters="sRGB">
<feFlood flood-opacity="0" result="BackgroundImageFix"/>
<feBlend mode="normal" in="SourceGraphic" in2="BackgroundImageFix" result="shape"/>
<feColorMatrix in="SourceAlpha" type="matrix" values="0 0 0 0 0 0 0 0 0 0 0 0 0 0 0 0 0 0 127 0" result="hardAlpha"/>
<feOffset dx="2" dy="3"/>
<feGaussianBlur stdDeviation="2"/>
<feComposite in2="hardAlpha" operator="arithmetic" k2="-1" k3="1"/>
<feColorMatrix type="matrix" values="0 0 0 0 0 0 0 0 0 0 0 0 0 0 0 0 0 0 0.7 0"/>
<feBlend mode="normal" in2="shape" result="effect1_innerShadow_40_782"/>
</filter>
<linearGradient id="paint0_linear_40_782" x1="15.4023" y1="1.36719" x2="15.4023" y2="23.8281" gradientUnits="userSpaceOnUse">
<stop stop-color="#FFF8E1"/>
<stop offset="1" stop-color="#F8AB55"/>
</linearGradient>
<linearGradient id="paint1_linear_40_782" x1="15.4023" y1="1.36719" x2="15.4023" y2="23.8281" gradientUnits="userSpaceOnUse">
<stop stop-color="#72B5BC"/>
<stop offset="1" stop-color="#345356"/>
</linearGradient>
<clipPath id="clip0_40_782">
<rect width="17.5781" height="17.5781" fill="white" transform="translate(6.51562 3.71094)"/>
</clipPath>
</defs>
</svg>
