<?xml version="1.0" encoding="UTF-8"?>
<svg id="Layer_1" data-name="Layer 1" xmlns="http://www.w3.org/2000/svg" viewBox="0 0 38.88 47.57">
  <defs>
    <style>
      .cls-1 {
        fill: #fff;
        stroke-width: 0px;
      }
    </style>
  </defs>
  <path class="cls-1" d="m19.41,47.56c-3.89,0-7.77,0-11.66,0-3.9,0-7.04-2.63-7.65-6.47-.29-1.81.05-3.55,1.06-5.13,1.88-2.94,4.54-4.7,7.97-5.35,3.94-.75,7.91-1.1,11.92-.97,3.38.11,6.76.38,10.02,1.31,3.61,1.03,6.28,3.25,7.46,6.9,1.41,4.34-1.66,9.04-6.18,9.62-.43.06-.86.09-1.29.09-3.89,0-7.77,0-11.66,0Zm.04-2.72c3.97,0,7.94.02,11.91,0,3.61-.03,5.96-4.03,4.2-7.16-1.17-2.08-2.93-3.51-5.25-4.11-3.19-.82-6.46-1.11-9.74-1.2-3.59-.09-7.14.25-10.68.88-2.78.49-4.97,1.83-6.46,4.25-.63,1.03-.81,2.16-.58,3.32.49,2.47,2.43,4.01,4.95,4.02,3.89,0,7.77,0,11.66,0Z"/>
  <path class="cls-1" d="m7.07,12.97C7.07,5.81,12.89,0,20.06,0c7.16,0,12.96,5.82,12.96,12.99,0,7.15-5.83,12.95-13.01,12.94-7.12,0-12.93-5.83-12.93-12.97Zm2.72-.01c0,5.64,4.61,10.26,10.23,10.26,5.64,0,10.26-4.61,10.26-10.23,0-5.64-4.6-10.26-10.23-10.26-5.64,0-10.26,4.6-10.26,10.23Z"/>
</svg>