<svg width="37" height="37" viewBox="0 0 37 37" fill="none" xmlns="http://www.w3.org/2000/svg">
<path d="M18.4627 36.9997C8.21137 36.9774 -0.0298813 28.684 -0.000102658 18.4327C0.029676 8.18884 8.33048 -0.0449678 18.5818 -0.000299768C28.7959 0.0443682 37.0073 8.30051 36.9999 18.5146C36.9925 28.7585 28.7065 37.0146 18.4627 36.9997ZM29.9945 29.2349C28.6321 26.942 26.8454 25.1776 24.5226 23.9492C23.5399 23.4281 22.5796 23.3536 21.5671 23.8078C19.5198 24.7309 17.48 24.6639 15.3955 23.8301C14.7478 23.5695 13.8544 23.4355 13.244 23.6663C10.4671 24.7309 8.47193 26.7261 7.01277 29.2572C13.1397 36.3074 24.1132 36.1063 29.9945 29.2349ZM25.1405 15.6484C25.1331 12.0079 22.1627 9.04497 18.5148 9.03753C14.8222 9.03008 11.8444 12.0154 11.8518 15.7005C11.8667 19.3335 14.8446 22.3114 18.4776 22.3188C22.1552 22.3337 25.148 19.3261 25.1405 15.6484Z" fill="#023744"/>
</svg>
