<svg width="37" height="45" viewBox="0 0 37 45" fill="none" xmlns="http://www.w3.org/2000/svg">
<path d="M20.1311 18.6929C20.1311 27.4824 20.1311 36.2105 20.1311 45C19.9246 45 19.7388 45 19.5633 45C16.0223 45 12.4813 45 8.94024 45C7.7014 45 7.16457 44.4685 7.16457 43.2217C7.16457 38.7145 7.16457 34.1971 7.16457 29.69C7.16457 29.506 7.16457 29.322 7.16457 29.1483C6.04961 28.6782 5.84314 28.3613 5.84314 27.1962C5.84314 24.9682 5.84314 22.7402 5.84314 20.5019C5.84314 19.2039 6.37997 18.6827 7.7014 18.6827C11.6554 18.6827 15.6093 18.6827 19.5633 18.6827C19.7285 18.6929 19.9143 18.6929 20.1311 18.6929Z" fill="#023744"/>
<path d="M22.712 45C22.712 36.2208 22.712 27.5028 22.712 18.7236C22.9082 18.7134 23.1147 18.6929 23.3108 18.6929C27.3061 18.6929 31.291 18.6929 35.2863 18.6929C36.4425 18.6929 37 19.2346 37 20.3793C37 22.6789 37 24.9784 37 27.278C37 28.392 36.7935 28.7088 35.6992 29.1381C35.6992 29.3425 35.6992 29.5571 35.6992 29.782C35.6992 34.2585 35.6992 38.7452 35.6992 43.2217C35.6992 44.4788 35.1624 45.0102 33.8719 45.0102C30.3309 45.0102 26.7796 45.0102 23.2385 45.0102C23.094 45 22.9392 45 22.712 45Z" fill="#023744"/>
<path d="M21.4113 17.211C20.3479 16.5467 19.3362 15.9641 18.3864 15.31C16.0739 13.7156 13.9266 11.9373 12.471 9.48444C11.4386 7.73677 10.9431 5.87668 11.769 3.9246C12.7497 1.60459 14.6286 0.296388 17.1063 0.0408807C19.553 -0.214627 21.4009 0.981149 22.7533 2.95367C23.9612 4.72178 24.3432 6.71474 24.147 8.79968C23.8683 11.7329 22.712 14.4106 21.4113 17.211ZM21.1429 16.5365C21.1945 16.516 21.2358 16.4956 21.2874 16.4854C21.2874 16.0459 21.2977 15.6064 21.2874 15.1669C21.2254 12.9798 21.2254 10.7824 21.0499 8.6055C20.9261 7.09289 20.255 5.75403 19.0162 4.77288C18.1283 4.06768 17.4986 4.06768 16.3733 4.75244C15.4958 5.2839 15.1551 5.90734 15.4339 6.89871C15.7229 7.92074 16.0636 8.96321 16.6108 9.87281C17.7773 11.8045 19.0988 13.6645 20.3583 15.5451C20.606 15.8824 20.8848 16.2094 21.1429 16.5365Z" fill="#E4A361"/>
<path d="M22.5881 17.2314C23.5689 14.6355 24.4464 12.1008 26.1704 9.98524C27.2854 8.61572 28.5759 7.44038 30.2689 6.82717C32.2924 6.08108 34.6462 6.78628 35.9676 8.47264C36.6799 9.39246 36.9071 10.4349 36.5973 11.5592C35.9573 13.8894 34.3984 15.3918 32.2098 16.3218C29.7631 17.3643 27.1822 17.5074 24.5703 17.3847C23.9405 17.3439 23.3005 17.2825 22.5881 17.2314ZM23.3314 16.6284C23.3624 16.6898 23.4037 16.7511 23.4347 16.8124C25.3033 16.1481 27.2028 15.5451 29.0301 14.7786C30.0418 14.3493 30.9606 13.685 31.8588 13.0411C32.5195 12.571 32.9118 11.8453 33.1699 11.0686C33.2938 10.6904 33.1802 10.4452 32.8808 10.251C32.1065 9.73995 31.3219 9.76039 30.4857 10.1488C27.399 11.5592 25.5201 14.2471 23.3314 16.6284Z" fill="#E4A361"/>
<path d="M20.0692 17.2928C19.6459 17.4052 19.2227 17.5789 18.7787 17.63C16.7037 17.8855 14.8145 17.3132 13.1214 16.1787C11.4593 15.0647 9.86942 13.8383 8.2486 12.663C7.76339 12.3052 7.2885 11.9373 6.81362 11.5796C4.88309 10.0874 2.72545 9.75017 0.392299 10.4145C0.268415 10.4452 0.134208 10.4656 0 10.4963C0.165179 8.97343 1.5692 7.56303 3.22098 7.22576C5.44057 6.76584 7.26786 7.51193 8.82673 9.05519C10.4682 10.67 12.1613 12.2541 13.7821 13.8894C15.31 15.4327 17.1166 16.4343 19.264 16.8328C19.5324 16.8839 19.7905 16.9861 20.0589 17.0679C20.0589 17.1395 20.0692 17.2212 20.0692 17.2928Z" fill="#E4A361"/>
</svg>
