<?xml version="1.0" encoding="utf-8"?>
<!-- Generator: Adobe Illustrator 27.9.0, SVG Export Plug-In . SVG Version: 6.00 Build 0)  -->
<svg version="1.1" id="Layer_1" xmlns="http://www.w3.org/2000/svg" xmlns:xlink="http://www.w3.org/1999/xlink" x="0px" y="0px"
	 viewBox="0 0 60 60" style="enable-background:new 0 0 60 60;" xml:space="preserve">
<style type="text/css">
	.st0{fill:#FFFFFF;}
</style>
<g>
	<path class="st0" d="M30,54.75c-4.82,0-9.63-0.02-14.45,0.01c-4.68,0.03-8.87-3.29-9.71-8.16c-0.09-0.51-0.12-1.03-0.12-1.55
		c-0.01-6.6-0.02-13.2,0-19.81c0.01-3.27,1.3-5.99,3.97-7.9c4.93-3.53,9.89-7.01,14.91-10.41c3.49-2.37,7.72-2.2,11.2,0.23
		c4.68,3.28,9.37,6.55,14.06,9.81c2.3,1.6,3.77,3.73,4.27,6.5c0.09,0.49,0.15,0.99,0.15,1.49c0.01,6.76,0.06,13.52-0.01,20.27
		c-0.06,5.02-3.94,8.86-8.41,9.41c-0.56,0.07-1.14,0.1-1.71,0.1C39.43,54.76,34.71,54.75,30,54.75z M8.54,35.09
		c0,3.14,0,6.27,0,9.41c0,0.47,0.03,0.93,0.09,1.4c0.41,3.39,3.33,6,6.74,6.02c1.26,0.01,2.53,0,3.8,0c0.77,0,0.77,0,0.77-0.77
		c0-4.71,0-9.43,0-14.14c0-0.4-0.01-0.8,0.06-1.19c0.49-2.48,2.42-4.04,5.05-4.06c3.29-0.02,6.59-0.02,9.88,0
		c1.94,0.01,3.49,0.79,4.49,2.5c0.47,0.8,0.63,1.67,0.63,2.59c-0.01,4.8,0,9.6-0.01,14.4c0,0.52,0.16,0.69,0.68,0.68
		c1.3-0.03,2.6,0,3.9-0.02c0.45-0.01,0.9-0.06,1.34-0.15c3.27-0.73,5.48-3.49,5.49-6.85c0.01-6.5,0.01-13,0-19.5
		c0-2.55-1.03-4.58-3.14-6.05c-1.22-0.85-2.44-1.7-3.67-2.56c-3.57-2.49-7.13-4.98-10.7-7.46c-1.25-0.87-2.65-1.28-4.16-1.24
		c-1.51,0.04-2.85,0.6-4.09,1.47c-4.63,3.26-9.27,6.51-13.93,9.73c-2.19,1.51-3.23,3.58-3.23,6.21C8.54,28.72,8.54,31.9,8.54,35.09z
		 M22.77,44c0,2.41,0,4.82,0,7.23c0,0.7,0,0.7,0.67,0.7c4.37,0,8.73,0,13.1,0c0.67,0,0.67,0,0.67-0.7c0-4.78,0-9.57,0-14.35
		c0-1.38-0.76-2.24-2.15-2.26c-3.38-0.04-6.76-0.04-10.14,0c-1.39,0.02-2.15,0.88-2.15,2.26C22.77,39.25,22.77,41.63,22.77,44z"/>
</g>
</svg>
