<?xml version="1.0" encoding="UTF-8"?>
<svg id="Layer_1" data-name="Layer 1" xmlns="http://www.w3.org/2000/svg" viewBox="0 0 67.73 39.76">
  <defs>
    <style>
      .cls-1 {
        fill: #fff;
        stroke-width: 0px;
      }
    </style>
  </defs>
  <path class="cls-1" d="m36.92.03c-1.79-.04-3.7-.04-5.86,0-3.27.05-5.65,2.44-5.66,5.69-.01,3.29,0,6.58,0,9.88v4.28s0,4.4,0,4.4c0,3.29,0,6.59,0,9.89.01,3.1,2.48,5.56,5.63,5.59,2.29.03,4.16.02,5.87,0,2.92-.05,5.4-2.54,5.4-5.44.02-9.61.02-19.21,0-28.82,0-2.9-2.47-5.4-5.38-5.45Zm2.07,23.09c0,3.47,0,6.95,0,10.42,0,2.16-.93,3.09-3.09,3.12-.72,0-1.45.01-2.17.01s-1.42,0-2.13-.02c-2.55-.04-3.1-1.68-3.1-3.04-.01-5.41-.02-10.82-.02-16.23V5.93c-.01-1.71,1.04-2.79,2.75-2.81,1.6-.02,3.2-.02,4.8,0,1.98.03,2.94,1,2.95,2.99,0,3.32,0,6.64,0,9.96v3.83s0,3.23,0,3.23Z"/>
  <path class="cls-1" d="m67.72,19.38c0-2.67.01-5.35-.01-8.02-.02-2.67-1.93-4.94-4.44-5.27-1.56-.21-3.09-.31-4.56-.31-.91,0-1.79.04-2.66.12-3.72.34-5.38,3.36-5.33,6.02.07,4.46.06,9,.05,13.38,0,3.02-.01,6.05,0,9.07.02,2.92,2.46,5.34,5.43,5.38,1.92.03,3.83.02,5.75,0,3.36-.03,5.73-2.38,5.75-5.72.02-2.58.01-5.15,0-7.73v-3.42s0-3.5,0-3.5Zm-3.11,6.41c0,2.57,0,5.15,0,7.72,0,1.84-.51,3.09-2.98,3.2-.47.02-.93.03-1.4.03s-.94,0-1.4-.01c-.66,0-1.33-.02-1.99,0-.94,0-1.67-.24-2.19-.76-.53-.53-.8-1.29-.79-2.27.02-1.83.01-3.67.01-5.51v-5.86c0-3.27,0-6.53,0-9.8,0-2.42.95-3.37,3.38-3.39,1.39,0,2.78-.01,4.16,0,2.14.02,3.18,1.07,3.19,3.2,0,2.54,0,5.07,0,7.61v3.04s0,2.8,0,2.8Z"/>
  <path class="cls-1" d="m12.14,15.33c-2.39-.27-4.48-.33-6.38-.17C1.95,15.47.01,17.61,0,21.52c0,1.36,0,2.72,0,4.07v.56h0v3.39c-.01,1.58-.02,3.16,0,4.73.04,2.97,2.51,5.42,5.51,5.46,1.95.02,3.92.02,5.87,0,3.09-.04,5.52-2.48,5.53-5.56.02-4.42.02-8.92,0-13.4-.02-2.85-2.03-5.14-4.79-5.45Zm1.7,18.38c0,1.81-1.14,2.94-2.96,2.94h-.92c-.62,0-1.24.01-1.86.01-.67,0-1.35,0-2.02-.02-1.89-.04-2.94-1.11-2.96-3.02-.02-1.47-.01-2.95,0-4.42v-1.85s0-1.68,0-1.68c0-1.41,0-2.81,0-4.22.02-2.1.95-3.04,3.01-3.06.67,0,1.34,0,2.01,0,.91,0,1.83,0,2.74-.01.93.01,1.64.23,2.17.75.53.52.8,1.25.8,2.17,0,4.13,0,8.27,0,12.4Z"/>
</svg>