<svg width="27" height="25" viewBox="0 0 27 25" fill="none" xmlns="http://www.w3.org/2000/svg">
<g clip-path="url(#clip0_41_1951)">
<path d="M0 9.46475C0.0263672 9.41036 0.0527344 9.35596 0.0738281 9.30157C0.284766 8.69778 0.769922 8.33877 1.39746 8.33333C2.95312 8.32789 4.50879 8.32789 6.05918 8.33333C6.83965 8.33877 7.425 8.948 7.425 9.74761C7.425 14.3603 7.425 18.9676 7.425 23.5803C7.425 24.3962 6.84492 24.9946 6.03809 24.9946C4.50879 25 2.97949 24.9946 1.45547 24.9946C0.711914 24.9946 0.268945 24.6519 0.0421875 23.9121C0.0369141 23.8903 0.0158203 23.8686 0 23.8468C0 19.0546 0 14.257 0 9.46475Z" fill="#012335"/>
<path d="M27.0001 23.8468C26.9737 23.9175 26.9421 23.9937 26.9157 24.0644C26.7206 24.6138 26.246 24.9891 25.6765 24.9891C24.0786 24.9946 22.4808 25 20.8829 24.9891C20.1921 24.9837 19.6437 24.4343 19.5751 23.7163C19.5646 23.6075 19.5646 23.4987 19.5646 23.3899C19.5646 19.827 19.5593 16.2641 19.5698 12.7067C19.5698 12.4347 19.612 12.141 19.7228 11.8962C19.9495 11.3849 20.3714 11.1238 20.9198 11.1184C22.4913 11.1129 24.0628 11.1129 25.6343 11.1184C26.2671 11.1184 26.7628 11.5155 26.9421 12.1356C26.9579 12.1845 26.979 12.2335 27.0001 12.2824C27.0001 16.139 27.0001 19.9957 27.0001 23.8468Z" fill="#012335"/>
<path d="M9.79793 12.5055C9.79793 8.8501 9.81375 5.19475 9.78739 1.54484C9.78211 0.658196 10.4044 -0.0163033 11.2798 1.52433e-05C12.7827 0.0326523 14.2856 0.00545476 15.7886 0.0108943C16.6481 0.0108943 17.2018 0.587483 17.2018 1.47412C17.2018 8.81746 17.2018 16.1662 17.2018 23.5096C17.2018 24.4343 16.6587 25 15.7622 25C14.2487 25 12.7405 25 11.227 25C10.3569 25 9.79793 24.4234 9.79793 23.5259C9.79793 19.8488 9.79793 16.1771 9.79793 12.5055Z" fill="#012335"/>
</g>
<defs>
<clipPath id="clip0_41_1951">
<rect width="27" height="25" fill="white"/>
</clipPath>
</defs>
</svg>
