<svg width="27" height="25" viewBox="0 0 27 25" fill="none" xmlns="http://www.w3.org/2000/svg">
<path d="M26.9944 25C26.901 25 26.8263 25 26.7515 25C21.8311 25 16.9144 25 11.9939 24.9961C11.8631 24.9961 11.71 24.9458 11.6053 24.8646C11.0038 24.4004 10.3836 23.9479 9.81948 23.4334C8.90414 22.594 8.43339 21.4839 8.16812 20.2732C8.10087 19.9676 8.05978 19.6543 8 19.2945C9.3039 19.2945 10.5817 19.2945 11.8594 19.2945C11.8706 19.2675 11.8856 19.2404 11.8968 19.2094C11.0823 18.3585 10.2678 17.5036 9.43093 16.6255C9.66257 16.4244 9.87926 16.2155 10.1184 16.0376C10.563 15.7088 11.0262 15.4071 11.4746 15.0783C11.6502 14.9507 11.766 14.9855 11.9042 15.1363C12.3488 15.6314 12.8719 16.0183 13.436 16.3586C14.6577 17.0936 15.9803 17.3257 17.3739 17.229C18.8646 17.1284 20.1237 16.4747 21.2445 15.4961C21.4164 15.3452 21.5808 15.1866 21.7564 15.0474C21.8012 15.0125 21.9021 14.9932 21.9469 15.0203C23.1574 15.7939 24.2595 16.699 25.1114 17.902C25.9931 19.1476 26.5348 20.5401 26.8076 22.0486C26.9757 23.0118 27.0168 23.9866 26.9944 25Z" fill="#012335"/>
<path d="M16.452 4.00176C20.2613 3.95023 22.9436 6.89457 22.9992 9.89779C23.0547 12.9305 20.3366 16.0183 16.4321 15.9999C12.9522 15.9815 10.004 13.2175 10 9.99716C9.98813 6.6443 13.0792 3.92079 16.452 4.00176Z" fill="#012335"/>
<path d="M8.171 10C5.804 9.93392 3.90645 8.64733 3.24369 6.52503C2.37578 3.74583 3.92223 1.16097 6.36024 0.298061C9.09413 -0.665914 12.0529 0.787822 12.9405 3.51261C13.051 3.85077 13.0273 3.91297 12.6999 4.07622C10.4907 5.18401 9.42946 7.03422 9.14147 9.39363C9.13358 9.47137 9.12569 9.54911 9.1178 9.62685C9.09019 9.92226 9.09019 9.93003 8.79826 9.96502C8.58917 9.98445 8.38008 9.98834 8.171 10Z" fill="#012335"/>
<path d="M4.23462 15C5.65125 16.2757 7.04497 17.5298 8.44251 18.7875C8.43869 18.8092 8.43106 18.8272 8.42724 18.8489C7.63301 18.8489 6.83496 18.8489 6.02927 18.8489C6.01782 21.3643 6.85023 23.4604 9 25C8.95418 24.9964 8.90836 25 8.86254 24.9928C7.57573 24.7073 6.35384 24.2772 5.27323 23.5363C3.84514 22.5569 2.97454 21.2306 2.53924 19.6259C2.48961 19.438 2.43233 19.2537 2.39415 19.0658C2.36742 18.9393 2.31014 18.9031 2.1765 18.8995C1.535 18.8851 0.893509 18.8634 0.248197 18.8453C0.187102 18.8417 0.122189 18.8381 0 18.8309C1.4319 17.537 2.82181 16.2757 4.23462 15Z" fill="#012335"/>
<path d="M7.52891 14.4357C6.71384 13.6597 5.94829 12.9302 5.14084 12.1614C4.97706 12.333 4.83995 12.4868 4.6876 12.6298C3.89157 13.3808 3.09174 14.1317 2.28809 14.8755C2.21573 14.9399 2.09385 14.9899 1.99482 14.9935C1.43494 15.0043 0.878863 15.0007 0.318979 14.9899C0.0333237 14.9828 -0.0390423 14.897 0.0180887 14.6395C0.360875 13.1376 0.94742 11.7465 2.05195 10.5772C2.63088 9.9657 3.30122 9.46507 4.04011 9.03237C4.14295 8.97158 4.19627 9.00377 4.26864 9.06813C4.8209 9.55089 5.41126 9.97286 6.11206 10.2554C7.10995 10.6594 8.14973 10.7238 9.21237 10.5915C9.58563 10.545 9.58563 10.5414 9.66942 10.8919C9.77606 11.3281 9.8789 11.7644 9.98554 12.1971C10.0274 12.3652 9.98173 12.4689 9.80272 12.569C9.06002 12.991 8.41254 13.5274 7.81457 14.1138C7.71554 14.2104 7.63936 14.3105 7.52891 14.4357Z" fill="#012335"/>
</svg>
