<svg width="32" height="31" viewBox="0 0 32 31" fill="none" xmlns="http://www.w3.org/2000/svg">
<path d="M17.1836 31C16.3945 31 15.5992 31 14.8102 31C14.7726 30.9818 14.735 30.9636 14.6975 30.9515C13.6579 30.7452 13.0881 30.09 12.9941 29.0708C12.9378 28.4824 12.8564 27.8879 12.7311 27.3055C12.418 25.9041 10.8086 25.3096 9.60627 26.1468C9.11781 26.4865 8.62936 26.8323 8.15969 27.2023C7.28924 27.8939 6.1683 27.8636 5.36674 27.0992C4.91586 26.6685 4.47124 26.2256 4.02036 25.7888C3.23758 25.0184 3.20001 23.9446 3.89511 23.1074C4.32721 22.5918 4.76556 22.07 5.11625 21.4998C5.81136 20.3775 5.13504 18.8973 3.83249 18.6485C3.21253 18.5333 2.58005 18.4544 1.94756 18.3937C0.782785 18.3027 0.0125306 17.5262 6.11413e-06 16.3978C-0.00625612 15.7912 6.11413e-06 15.1845 6.11413e-06 14.5839C6.11413e-06 13.5162 0.738949 12.7215 1.82858 12.6002C2.43601 12.5335 3.04971 12.4546 3.65089 12.3636C5.18513 12.1331 5.89277 10.5376 5.00353 9.29999C4.65911 8.82074 4.28963 8.35361 3.90764 7.90469C3.20001 7.05537 3.21879 6.00586 4.00157 5.21721C4.44619 4.76829 4.90333 4.31937 5.36674 3.88864C6.1683 3.13639 7.22662 3.09393 8.1096 3.76124C8.65441 4.1677 9.1867 4.59236 9.76909 4.93815C10.9213 5.62367 12.3992 5.02308 12.7061 3.75518C12.8564 3.13639 12.9378 2.50547 12.9879 1.87455C13.0568 0.940305 13.7143 0.145589 14.6787 0.0606574C15.5241 -0.012141 16.3883 -0.0182075 17.2337 0.0485244C18.2294 0.127389 18.8744 0.837174 18.9934 1.80175C19.0622 2.37201 19.1436 2.94226 19.2376 3.50645C19.5006 5.06555 21.1162 5.72074 22.4501 4.80469C22.9198 4.48316 23.3769 4.1495 23.8215 3.80371C24.7797 3.06966 25.8192 3.10606 26.6834 3.93111C27.1155 4.34363 27.5413 4.75616 27.9609 5.17475C28.7624 5.97553 28.8 7.00077 28.0861 7.88042C27.6728 8.38395 27.2532 8.89353 26.89 9.43346C26.1198 10.5922 26.8775 12.1513 28.2865 12.3454C28.9127 12.4303 29.5452 12.5092 30.1714 12.5881C30.591 12.6427 30.973 12.7822 31.3049 13.0552C31.6932 13.3767 31.8622 13.8196 32 14.2746C32 15.0814 32 15.8883 32 16.6951C31.9812 16.7497 31.9562 16.8104 31.9436 16.865C31.7245 17.7264 31.0481 18.2845 30.1401 18.3877C29.564 18.4544 28.9879 18.5575 28.4055 18.6061C26.9213 18.7395 25.9945 20.42 27.0528 21.7789C27.4161 22.246 27.7793 22.7131 28.155 23.1681C28.7687 23.9143 28.7374 25.0063 28.0611 25.6918C27.5789 26.1832 27.0842 26.6624 26.5832 27.1295C25.8192 27.8515 24.6857 27.8636 23.8591 27.2084C23.3456 26.8019 22.8133 26.4076 22.2622 26.0497C21.135 25.3217 19.5194 25.9708 19.2626 27.2569C19.1374 27.8818 19.0748 28.5127 18.9934 29.1436C18.937 29.5986 18.7804 29.9929 18.4548 30.3387C18.1104 30.7331 17.6595 30.8847 17.1836 31ZM22.3875 15.5243C22.4 12.1027 19.557 9.33033 16.0125 9.31213C12.4806 9.29999 9.61879 12.0603 9.60627 15.4879C9.59374 18.9033 12.4556 21.6818 15.9937 21.6818C19.5131 21.6879 22.375 18.9337 22.3875 15.5243Z" fill="#FFD798"/>
<path d="M15.9875 18.5939C14.2215 18.5879 12.8 17.1986 12.8063 15.4879C12.8125 13.7771 14.2466 12.3939 16.0125 12.4C17.7785 12.406 19.2 13.7953 19.1937 15.5061C19.1875 17.2168 17.7534 18.6 15.9875 18.5939Z" fill="#FFD798"/>
</svg>
