<svg width="21" height="22" viewBox="0 0 21 22" fill="none" xmlns="http://www.w3.org/2000/svg">
<path d="M0.177037 20.7493C0.0590124 20.5057 0 20.2377 0 19.9616C0 18.443 0 16.9243 0 15.4057C0 13.3186 0 11.2314 0 9.13621C0 7.56884 0 6.00147 0 4.4341C0 3.18346 0.97792 2.3145 2.30992 2.41195C2.73143 2.44444 3.14452 2.45256 3.56604 2.41195C3.84424 2.37947 4.09715 2.59062 4.08872 2.85049C4.07186 3.74381 4.85588 4.37726 5.68206 4.36101C7.00562 4.33665 8.33762 4.35289 9.66118 4.35289C11.5664 4.35289 13.4633 4.35289 15.3685 4.35289C16.1357 4.35289 16.7511 3.86563 16.8776 3.15097C16.9113 2.95607 16.9028 2.75304 16.9028 2.55001C16.9028 2.43632 16.945 2.39571 17.063 2.40383C17.7206 2.41195 18.3697 2.40383 19.0273 2.41195C19.3982 2.42008 19.7523 2.52565 20.0558 2.72056C20.7302 3.15909 20.9916 3.7763 20.9916 4.53968C20.9831 6.83794 20.9831 9.14433 20.9831 11.4426C20.9831 14.285 20.9916 17.1192 20.9747 19.9616C20.9747 20.2458 20.9157 20.5463 20.7977 20.7981C20.4352 21.5939 19.7607 21.9838 18.8671 21.9838C16.8691 21.9919 14.8711 21.9838 12.8731 21.9838C9.28181 21.9838 5.69049 21.9838 2.09916 21.9838C1.36572 21.9838 0.775592 21.7076 0.345644 21.1229C0.328784 21.0986 0.320353 21.0661 0.286632 21.0092L0.177037 20.7493ZM12.0554 9.64783C13.4127 9.64783 14.7784 9.64783 16.1357 9.64783C16.8101 9.64783 17.2991 9.11184 17.1811 8.48652C17.0883 7.99926 16.6584 7.68253 16.102 7.68253C14.3063 7.68253 12.5106 7.68253 10.715 7.68253C9.8045 7.68253 8.89402 7.68253 7.99197 7.68253C7.31754 7.69065 6.85387 8.22665 6.9719 8.84385C7.0562 9.31487 7.47772 9.63159 8.02569 9.63159C9.36612 9.64783 10.715 9.64783 12.0554 9.64783ZM12.0976 13.5622C12.6287 13.5622 13.1598 13.5622 13.6909 13.5622C14.5592 13.5622 15.4275 13.5703 16.2959 13.546C16.7764 13.5378 17.1558 13.1399 17.1979 12.6608C17.2401 12.206 16.9281 11.7593 16.4645 11.6537C16.2874 11.6131 16.1104 11.605 15.9249 11.605C13.9354 11.605 11.9542 11.605 9.96467 11.605C9.30711 11.605 8.64111 11.5969 7.98354 11.605C7.24167 11.6131 6.75271 12.3034 7.02248 12.945C7.19109 13.3348 7.54516 13.5541 8.04255 13.5622C9.39984 13.5622 10.7487 13.5622 12.0976 13.5622ZM12.0723 17.4766C12.283 17.4766 12.4938 17.4766 12.6961 17.4766C13.8595 17.4766 15.0229 17.4766 16.1863 17.4766C16.6162 17.4766 16.9703 17.2329 17.122 16.8675C17.3918 16.2178 16.9113 15.5356 16.161 15.5275C13.7246 15.5194 11.2882 15.5275 8.84344 15.5275C8.51465 15.5275 8.17744 15.5194 7.84865 15.5356C7.29225 15.5762 6.87073 16.1041 6.95504 16.6401C7.03934 17.1436 7.444 17.4766 8.0004 17.4766C9.36612 17.4766 10.7234 17.4766 12.0723 17.4766ZM5.92654 8.65706C5.92654 8.12919 5.44601 7.68253 4.89803 7.69065C4.34163 7.69878 3.87796 8.14544 3.88639 8.67331C3.89482 9.2093 4.35006 9.64783 4.90646 9.65596C5.46287 9.65596 5.93497 9.19305 5.92654 8.65706ZM4.91489 17.4684C5.47973 17.4684 5.92654 17.038 5.92654 16.502C5.92654 15.9579 5.48816 15.5275 4.92332 15.5275C4.34163 15.5275 3.89482 15.9498 3.89482 16.4939C3.89482 17.0461 4.34163 17.4766 4.91489 17.4684ZM4.91489 13.5541C5.4713 13.5541 5.92654 13.1237 5.92654 12.5877C5.92654 12.0598 5.47973 11.6131 4.94018 11.605C4.35849 11.5969 3.90325 12.0192 3.90325 12.5714C3.88639 13.1237 4.3332 13.5541 4.91489 13.5541Z" fill="#012335"/>
<path d="M10.5042 3.76006C8.96146 3.76006 7.41027 3.76818 5.86752 3.76006C5.10036 3.76006 4.58611 3.17534 4.6957 2.44445C4.77157 1.91658 5.2774 1.51052 5.86752 1.5024C6.71055 1.5024 7.56202 1.5024 8.40506 1.5024C8.53994 1.5024 8.60738 1.46992 8.64954 1.33186C8.91088 0.51975 9.66118 -0.00812024 10.5295 8.42003e-07C11.381 0.00812192 12.1228 0.552234 12.3673 1.35622C12.401 1.47804 12.4685 1.5024 12.5781 1.5024C13.438 1.5024 14.2894 1.5024 15.1493 1.5024C15.7395 1.5024 16.2453 1.9247 16.3127 2.46881C16.3886 3.06165 16.0345 3.5814 15.4444 3.72758C15.3011 3.76006 15.1409 3.76006 14.9892 3.76006C13.4886 3.76006 11.9964 3.76006 10.5042 3.76006Z" fill="#012335"/>
</svg>
