<svg width="37" height="37" viewBox="0 0 37 37" fill="none" xmlns="http://www.w3.org/2000/svg">
<g clip-path="url(#clip0_41_1532)">
<path d="M36.9999 18.4653C37.0152 28.4886 29.0812 36.6929 19.0677 36.9922C8.60915 37.2992 0.306789 29.0642 0.00753587 19.11C-0.307064 8.55723 8.01832 0.30687 17.9244 0.00755457C28.4059 -0.30711 36.9922 8.10442 36.9999 18.4653ZM15.4459 21.965C15.5073 21.9881 15.5687 21.9957 15.6148 22.0341C16.267 22.5483 16.9192 23.0625 17.5714 23.5767C19.1367 24.8124 20.6944 26.0557 22.2751 27.276C22.9656 27.8055 23.9708 27.4371 24.1396 26.6236C24.4926 24.8738 24.8379 23.1162 25.1832 21.3587C25.7203 18.6495 26.2498 15.9403 26.7869 13.2388C26.9787 12.2641 27.1936 11.2894 27.3624 10.3071C27.4698 9.70845 27.1859 9.43215 26.5797 9.51658C26.3035 9.55495 26.0272 9.63937 25.774 9.73915C23.5948 10.5834 21.4233 11.4429 19.2442 12.2948C15.6148 13.7147 11.9853 15.1345 8.36361 16.562C7.85718 16.7615 7.34308 16.9688 6.86734 17.2374C6.44532 17.4753 6.40695 17.9051 6.76759 18.2274C7.00546 18.4423 7.31239 18.6035 7.61932 18.7109C8.94677 19.1791 10.2819 19.6089 11.6094 20.0694C11.8779 20.1615 12.0928 20.1308 12.323 19.9773C15.8987 17.6979 19.482 15.4185 23.0654 13.1467C23.1728 13.0777 23.2879 13.0009 23.403 12.9779C23.5258 12.9549 23.6562 13.0009 23.7867 13.0163C23.756 13.1314 23.7483 13.2619 23.6869 13.354C23.6025 13.4768 23.4797 13.5765 23.3646 13.6763C20.9016 15.8866 18.4385 18.1046 15.9754 20.315C15.5841 20.668 15.2004 21.0287 14.9318 21.2666C15.1313 21.5352 15.2925 21.7578 15.4536 21.9881C15.2234 21.8499 15.0009 21.7041 14.74 21.5429C14.5482 23.2467 14.364 24.9121 14.1799 26.5699C14.2259 26.6006 14.2643 26.6236 14.3103 26.6543C14.4868 26.5545 14.6863 26.4778 14.8321 26.3473C15.4229 25.8254 16.0061 25.2882 16.5892 24.751C16.9345 24.4363 17.2798 24.1216 17.6558 23.7763C17.2798 23.477 16.9422 23.216 16.6046 22.9397C16.2133 22.6174 15.8296 22.2874 15.4459 21.965Z" fill="#023744"/>
<path d="M15.4615 21.9805C15.3003 21.7579 15.1315 21.5277 14.9397 21.2591C15.2006 21.0212 15.5919 20.6604 15.9832 20.3074C18.4463 18.0971 20.9094 15.8791 23.3725 13.6687C23.4876 13.569 23.6104 13.4692 23.6948 13.3464C23.7562 13.2543 23.7638 13.1238 23.7945 13.0087C23.6641 12.9934 23.5336 12.9473 23.4109 12.9703C23.2881 12.9934 23.1807 13.0701 23.0732 13.1392C19.4899 15.4109 15.9065 17.6903 12.3308 19.9697C12.093 20.1232 11.8858 20.1539 11.6172 20.0618C10.2898 19.6013 8.95463 19.1715 7.62717 18.7034C7.32024 18.5959 7.01332 18.4348 6.77545 18.2199C6.41481 17.8975 6.45317 17.4677 6.8752 17.2298C7.35093 16.9612 7.86504 16.754 8.37147 16.5544C11.9932 15.1269 15.6226 13.7071 19.252 12.2873C21.4312 11.4354 23.6027 10.5758 25.7819 9.73159C26.0428 9.63182 26.319 9.54739 26.5876 9.50902C27.1937 9.41692 27.4776 9.70089 27.3702 10.2995C27.1937 11.2819 26.9866 12.2566 26.7947 13.2313C26.2576 15.9405 25.7282 18.6497 25.191 21.3512C24.8457 23.1087 24.5005 24.8585 24.1475 26.616C23.9864 27.4296 22.9735 27.798 22.2829 27.2684C20.7022 26.0558 19.1446 24.8048 17.5793 23.5692C16.927 23.055 16.2748 22.5408 15.6226 22.0265C15.5766 21.9882 15.5075 21.9805 15.4538 21.9575L15.4615 21.9805Z" fill="white"/>
<path d="M15.4461 21.9652C15.8298 22.2875 16.2134 22.6175 16.6048 22.9322C16.9347 23.2085 17.28 23.4694 17.656 23.7687C17.28 24.1141 16.9347 24.4287 16.5894 24.7434C16.0063 25.273 15.4231 25.8179 14.8323 26.3398C14.6865 26.4702 14.487 26.547 14.3105 26.6468C14.2645 26.6161 14.2261 26.593 14.1801 26.5623C14.3642 24.9046 14.556 23.2392 14.7402 21.5354C15.0011 21.6965 15.2313 21.8347 15.4538 21.9805C15.4615 21.9805 15.4461 21.9652 15.4461 21.9652Z" fill="white"/>
</g>
<defs>
<clipPath id="clip0_41_1532">
<rect width="37" height="37" fill="white"/>
</clipPath>
</defs>
</svg>
