<svg width="37" height="37" viewBox="0 0 37 37" fill="none" xmlns="http://www.w3.org/2000/svg">
<g clip-path="url(#clip0_41_1541)">
<path d="M37 18.6879C36.9875 28.7429 28.6365 37.0125 18.4875 36.9999C8.2508 36.9874 -0.0187625 28.6928 3.19726e-05 18.4435C0.0188264 8.18177 8.33224 -0.068988 18.688 -7.49793e-05C29.0124 0.068838 37.1379 8.57646 37 18.6879ZM7.14819 29.5448C7.79973 29.5448 8.36982 29.5323 8.93992 29.5511C9.14666 29.5573 9.28449 29.4821 9.41605 29.3255C11.2642 27.183 13.1186 25.0529 14.9729 22.9166C15.6182 22.1711 16.2698 21.4256 16.9338 20.655C17.0153 20.7553 17.0779 20.8367 17.1343 20.9181C19.0952 23.7248 21.0498 26.5314 23.017 29.3318C23.0921 29.4383 23.2613 29.5385 23.3866 29.5385C25.4039 29.5511 27.4149 29.5511 29.4321 29.5448C29.5073 29.5448 29.5825 29.526 29.6953 29.5135C26.6443 25.1281 23.6184 20.7803 20.5925 16.4325C23.4367 13.156 26.2559 9.9046 29.1252 6.59678C28.4799 6.59678 27.9161 6.58425 27.3585 6.60304C27.2144 6.60931 27.039 6.69075 26.945 6.79099C25.1345 8.85211 23.3365 10.9258 21.5322 12.9994C20.9245 13.7011 20.3168 14.3965 19.6841 15.1169C19.5838 14.9728 19.4961 14.8538 19.4147 14.741C17.6418 12.1975 15.8751 9.65401 14.1021 7.11049C13.9831 6.94134 13.8829 6.79099 13.6197 6.79725C11.6025 6.80978 9.59146 6.80351 7.57419 6.80351C7.49902 6.80351 7.42384 6.81604 7.29854 6.82857C10.2179 11.0135 13.1123 15.1608 16.0192 19.3206C13.081 22.7224 10.1428 26.0991 7.14819 29.5448Z" fill="#023744"/>
<path d="M7.14819 29.5449C10.1428 26.0992 13.081 22.7225 16.0254 19.3332C13.1186 15.1671 10.2242 11.0198 7.30481 6.84118C7.42385 6.82865 7.49902 6.81612 7.58047 6.81612C9.59774 6.81612 11.6087 6.82238 13.626 6.80985C13.8891 6.80985 13.9894 6.95394 14.1084 7.12309C15.8813 9.66661 17.648 12.2101 19.421 14.7536C19.5024 14.8727 19.5839 14.9854 19.6904 15.1295C20.3168 14.4091 20.9308 13.7074 21.5385 13.012C23.3427 10.9446 25.1407 8.87098 26.9513 6.80359C27.0452 6.69708 27.2207 6.61564 27.3648 6.61564C27.9223 6.59685 28.4862 6.60938 29.1314 6.60938C26.2621 9.9172 23.443 13.1686 20.5988 16.4451C23.6247 20.7929 26.6506 25.1407 29.7015 29.5261C29.5888 29.5386 29.5136 29.5574 29.4384 29.5574C27.4211 29.5574 25.4101 29.5637 23.3929 29.5511C23.2676 29.5511 23.0984 29.4509 23.0232 29.3444C21.0561 26.544 19.1015 23.7374 17.1406 20.9307C17.0842 20.8493 17.0153 20.7679 16.9401 20.6676C16.276 21.4319 15.6308 22.1774 14.9792 22.9292C13.1248 25.0655 11.2704 27.2018 9.42232 29.3381C9.29076 29.4947 9.15293 29.5637 8.9462 29.5637C8.36983 29.5386 7.79973 29.5449 7.14819 29.5449ZM27.0265 28.1603C26.92 28.0037 26.8636 27.9097 26.7947 27.8158C24.4955 24.5142 22.1963 21.2064 19.8971 17.9048C17.7044 14.7536 15.5117 11.6024 13.3253 8.45123C13.2125 8.28835 13.0998 8.21317 12.893 8.21317C12.0034 8.2257 11.1201 8.21943 10.2305 8.21943C10.1553 8.21943 10.0801 8.23823 9.98615 8.24449C10.0551 8.34473 10.0989 8.41364 10.149 8.48256C13.4694 13.2376 16.7897 17.9925 20.1101 22.7475C21.3192 24.4766 22.5221 26.2057 23.7312 27.9285C23.8001 28.0288 23.9254 28.1478 24.0319 28.1541C25.0092 28.1666 25.9865 28.1603 27.0265 28.1603Z" fill="white"/>
<path d="M27.0265 28.1603C25.9865 28.1603 25.0092 28.1666 24.0319 28.1478C23.9317 28.1478 23.8001 28.0225 23.7312 27.9223C22.5221 26.1995 21.3193 24.4704 20.1101 22.7413C16.7898 17.9863 13.4694 13.2313 10.1491 8.4763C10.099 8.40738 10.0551 8.33847 9.98621 8.23823C10.0802 8.2257 10.1554 8.21317 10.2305 8.21317C11.1201 8.21317 12.0035 8.21944 12.8931 8.20691C13.0998 8.20691 13.2126 8.28209 13.3254 8.44497C15.5118 11.5962 17.7107 14.7474 19.8971 17.8986C22.1963 21.2001 24.4955 24.508 26.7947 27.8095C26.8636 27.9098 26.9263 28.0037 27.0265 28.1603Z" fill="#023744"/>
</g>
<defs>
<clipPath id="clip0_41_1541">
<rect width="37" height="37" fill="white"/>
</clipPath>
</defs>
</svg>
