<svg width="20" height="19" viewBox="0 0 20 19" fill="none" xmlns="http://www.w3.org/2000/svg">
    <g clip-path="url(#clip0_41_1414)">
        <path
            d="M15.053 2.18202C14.546 2.49808 14.1391 2.83238 13.6733 3.01472C13.4434 3.10589 13.0719 2.99648 12.8302 2.86277C9.05659 0.765836 4.45753 2.24888 2.58253 6.18138C1.20281 9.08062 1.81602 12.6727 4.06838 14.9216C6.35022 17.207 9.79951 17.7418 12.5825 16.2527C15.4186 14.7332 16.9988 11.5483 16.5448 8.35125C16.5035 8.06558 16.6509 7.68266 16.8396 7.4517C17.1403 7.08094 17.5472 6.80742 17.9304 6.46705C19.4752 10.7095 17.5236 15.7422 13.5613 17.8816C9.36909 20.1488 4.26885 18.8602 1.60965 14.873C-1.00827 10.9466 -0.371479 5.53103 3.06602 2.40691C6.48583 -0.692897 11.7689 -0.826614 15.053 2.18202Z"
            fill="#023744" />
    </g>
    <defs>
        <clipPath id="clip0_41_1414">
            <rect width="20" height="19" fill="white" />
        </clipPath>
    </defs>
</svg>