<?xml version="1.0" encoding="UTF-8"?>
<svg id="Layer_1" data-name="Layer 1" xmlns="http://www.w3.org/2000/svg" viewBox="0 0 904.59 906.69">
  <defs>
    <style>
      .cls-1 {
        stroke-width: 9.94px;
      }

      .cls-1, .cls-2, .cls-3 {
        stroke: #000;
        stroke-miterlimit: 10;
      }

      .cls-1, .cls-4 {
        fill: #fff;
      }

      .cls-5, .cls-4, .cls-6 {
        stroke-width: 0px;
      }

      .cls-2 {
        fill: #313533;
        stroke-width: 9.42px;
      }

      .cls-6 {
        fill: #4b37dd;
      }

      .cls-3 {
        stroke-width: 13.59px;
      }
    </style>
  </defs>
  <g>
    <g>
      <path class="cls-3" d="m12.5,712.07c.62,1.01,1.29,2,2.01,2.95-2.74,17.51-6.3,43.08,12.25,55.13,1.19.78,2.46,1.48,3.77,2.1,1.59,4.55,1.71,9.65,1.84,15,.26,10.96.58,24.6,15.26,34.88,9.23,6.59,19.94,7.56,30.92,2.75.32-.14.65-.29.98-.44,2.23,1.97,4.26,4.53,6.38,7.2,4.33,5.46,9.22,11.63,17.31,14.49,3.83,1.84,7.84,2.74,11.88,2.74,9.35,0,18.85-4.82,26.63-13.91,17.9,7.75,30.27,3.85,37.69-1.1l.48-.35c8.5-6.8,10.13-14.96,11.44-21.52.2-.99.39-1.98.62-2.96,11.97.26,33.38-1.74,40.56-23.28l.22-.82c1.64-8.21-.98-16.04-3.39-21.55.81-.54,1.65-1.07,2.51-1.61,6.53-4.13,14.66-9.28,16.45-21.81,1.84-11.02-3.11-19.4-9.33-26.7,13-6.93,28.93-17.46,22.68-38.27l-.15-.43c-3.96-10.56-8.58-19.78-14.13-28.2-.22-.34-.45-.68-.68-1.01,7.11-5.92,10.83-15.21,12.82-20.18l.27-.68.12-.72c2.83-16.95-7.5-26.74-15.8-34.6-1.5-1.42-3-2.84-4.42-4.3,2.78-1.73,5.26-4,7.37-6.77,4.43-5.8,7.07-13.75,7.45-21.94,15.04,17.74,31.25,41.22,38.01,66.56,11.51,43.17,29.98,112.41,119.19,112.41,10.33,0,21.59-.93,33.92-2.93,77.7-12.63,82.49-80.72,86.34-135.43,1.72-24.41,3.34-47.47,11.05-61.61l.12-.22c1.76,5.33,4.81,10.18,8.99,14.25-9.35,7.82-19.66,17.75-15.68,35.29l.16.57c2.18,6.8,5.93,12.64,10.82,17.04-7.19,8.81-10.07,19.81-7.91,30.42,1.74,8.56,6.54,15.79,13.71,20.84l-.52,1.29c-6.69,16.65-15.58,38.77,3.54,54.15-7.39,8.56-10.14,20.85-7,32.32,2.12,7.76,6.58,13.96,12.75,18.03-.26.43-.52.87-.76,1.32-3.64,6.69-5.17,15.4-4.21,23.91l.15.83c3.01,12.49,12.18,16.62,19.55,19.95,3.72,1.68,7.25,3.27,9.91,5.78.52.99,1.03,1.99,1.55,3l.16.31c4.72,9.25,10.59,20.76,24.51,23.09,9.87,1.79,18.97-.47,26.23-6.54,5.52-4.62,9.56-11.24,11.67-18.78,8.86,5.22,19.5,10.05,32.23,3.56,14.42-7.35,18.9-22.15,18.21-36.43,1.36.08,2.71.11,4.04.07,18.29-.44,30.74-10.62,33.31-27.21l.07-.68c.52-9.86-2.29-18.02-5.01-25.92-.16-.46-.32-.93-.48-1.4,10.02-1.48,18.67-7.32,24.5-16.57l.19-.32c7.64-13.73,4.07-28.18-3.12-39.4,1.93-1.06,3.57-2.27,4.99-3.67,2.07-2.05,3.65-4.53,4.69-7.38,6.22-16.97.65-34.11-15.28-48.12,1.08-.93,2.1-1.93,3.05-2.99,15.49-17.21,7.51-42.57-9.04-60.89l.02-.02c9.67-11.77,13.94-27.43,11.16-40.88-1.66-8.03-5.58-14.85-11.5-20.15.15-.61.24-1.24.28-1.89.8-1.47,1.52-2.97,2.12-4.5,7.39-18.54-.06-39.16-18.15-51.42.27-1.11.71-1.53,1.45-1.91l.79-.48c1.33-.94,2.64-2.15,4.24-3.91,5.22-5.76,11.02-14.02,9.56-26.95l-.18-.95c-3.2-12.3-10.48-22.18-20.58-28.3,4.87-8.76,5.78-19.35,2.48-29.24-2.43-7.27-6.88-13.42-12.86-17.94.23-.32.45-.64.66-.95,3.67-5.42,5.62-10.5,6.11-15.95,2.05-16.01-8.96-27.78-22.92-33.13.21-1.24.36-2.4.44-3.02,2.48-20.55-5.39-36.91-21.25-45.06-.01-1.27-.21-2.63-.58-4.08-.03-.11-.06-.22-.08-.32-.13-2.04-.39-4.04-.77-5.97-3.03-15.23-14.55-27.72-29.27-32.17-.33-.84-.69-1.66-1.08-2.47-5.84-11.98-19.1-20.83-35-23.53-.93-1.1-1.91-2.14-2.94-3.13-10.71-10.3-26.41-14.11-43.42-10.65-1.11-.66-2.22-1.28-3.33-1.86-15.98-8.28-31.62-6.91-44.38,3.8-.95-.07-1.91-.11-2.86-.11h-.23c-14.09,0-27.37,6.84-35.18,18.01l-1.5.74c-16.56,2.4-29.78,9.84-37.36,20.84-.46-.75-.94-1.45-1.45-2.11,13.91-52.06,36.08-71.65,50.86-84.71,6.18-5.46,11.06-9.77,13.94-15.12,1.67-3.09,6.74-12.51.42-18.26-2.02-1.84-6.5-5.91-25.15,2.96,3.59-7.08,5.79-14.26,4.34-19.87-1.12-4.34-4.15-7.61-8.54-9.21-9.4-3.43-20.5,2.71-30.39,11.25,1.6-6.89,2.14-13.19.56-17.42-1.4-3.73-3.93-5.5-5.8-6.32-1.82-.79-4.74-1.44-8.37-.02-4.41,1.73-9.08,6.81-13.5,13.18-1.58-6.15-5.06-11.56-11.59-14.89-4.48-2.28-9.35-2.45-14.08-.51-6.26,2.57-11.77,8.84-16.29,15.92-2.19-10.89-7.5-21.15-19.23-24.43-5.4-1.51-10.5-.64-14.75,2.52-2.87,2.13-5.29,5.3-7.25,9.5-4.49-8.37-11.01-12.75-19.12-12.58-4.99.07-9.47,2.16-12.94,6.04-4.58,5.12-7.03,13.24-8.29,21.6-3.72-5.59-8.27-10.63-13.69-13.64-5.54-3.08-11.59-3.78-17.49-2.02-3.02.9-5.42,3.05-6.75,6.06-3.67,8.26,1.59,25.58,7.3,39.93-15.96-6.75-26.53-7.75-31.5-2.98-2.67,2.56-4.96,7.42-.77,16.08,9.49,19.61,21.78,28.68,34.78,38.28,8.42,6.22,17.14,12.65,25.64,22.59,10.01,11.71,17.65,25.66,22.76,41.51-.15.21-.3.41-.44.63-6.53-4.04-13.55-7.74-20.98-11.02-.31-.14-.66-.29-1-.45-2.55-7.66-7.66-14.07-14.63-18.24-8.37-5.01-18.99-6.57-29.45-4.37-.17-.08-.34-.16-.51-.24l-1.26-.59c-10.14-4.63-21.09-4.92-29.81-4.5-1.52-.57-3.09-1.03-4.69-1.39-10.68-2.38-23.24-.14-35.6,6.31-1.51-.23-3.03-.4-4.53-.51-20.11-1.42-34.97,7.86-39.56,24.47-.97.54-1.89,1.1-2.76,1.66-11.06,7.19-13.89,16.33-13.61,24.28-.31.17-.61.35-.91.56-1.97.94-3.84,2.03-5.59,3.23-13.66,9.44-19.02,26-14.13,42.84-.04.06-.07.12-.11.19l-.59.99c-6.54,11.06-8.28,23.36-5.07,35.69-8.8,4.45-18.57,9.64-22.86,22.51l-.26,1.03c-2.01,12.07,2.65,20.62,7.15,28.89.25.46.5.91.75,1.37-10.7,10.56-16.37,22.68-16.03,34.4.02.77.07,1.55.15,2.32-12.57,13.63-16.17,31.14-9.09,45.46-4.58,2.5-8.56,6.11-11.52,10.6-5.03,7.61-6.58,16.76-4.28,25.13.85,4.09,2.31,7.62,4.52,10.85-4.55,3-8.58,6.82-11.32,10.94l-.29.47c-4.81,8.66-7.72,21.95,4.78,36.89-9.48,10.75-11.66,25.67-5.12,39.48.6,1.27,1.27,2.52,2.01,3.74-4.19,2-8.35,4.52-11.09,8.62-8.69,12.42-8.12,25.66,1.75,38.16.05.06.09.12.14.18-10.54,16.75-9.06,36.73,4.29,51.2.56.61,1.14,1.2,1.73,1.76-12.85,16.21-19.18,40.41-8.32,58.15Zm635.21,87.08l1.98-3.6c1.88,1.11,2.58,2.81,2.67,3.31l-4.65.29ZM36.68,656.78l13.16-11.85h-17.71c-.48,0-.77.01-1.04,0-.68-.61-1.36-1.27-2.02-1.98-10.04-10.88-10.17-25.87-.32-38.19l3.71-4.65-4.12-4.3c-1.16-1.21-2.18-2.37-3.03-3.45-6.1-7.73-6.47-14.54-1.2-22.07,1.46-2.19,5.57-4,9.19-5.59,2.86-1.26,5.81-2.56,8.41-4.29l18.67-12.45h-22.44c-.36,0-1.11,0-1.73-.05-.74-1.12-1.4-2.28-1.96-3.46-3.53-7.45-4.06-17.59,3.74-25.51l44.2,22.71-34.34-30.15,11.64-8.15h-20.85c-7.29-8.02-8.71-15.01-4.59-22.63,2.81-4.07,8.88-8.94,15.24-10.53l53.53-13.39h-55.17c-.39,0-.68,0-.91,0-.04-.05-.08-.09-.13-.14-2.11-2.35-3.29-4.73-3.94-7.97l-.13-.53c-1.32-4.63-.42-9.8,2.47-14.18,2.02-3.05,4.83-5.41,8.07-6.84l.32.41,1.2-1c1.15-.39,2.35-.66,3.57-.82l-.13-2.05.72-.6c-.23.2-.48.37-.72.52l-.51-8.19,2.23-1.75c-.29-.38-.58-.76-.85-1.16.66.25,1.21.62,1.57.98-.63-.66-1.29-1.19-1.96-1.58-.4-.64-.78-1.3-1.12-1.99-5.92-11.92,1.05-24.81,8.82-32.23l2.75-2.62-.8-3.71c-.25-1.18-.4-2.4-.44-3.62-.25-8.36,4.8-17.87,13.85-26.09l1.48-1.35.63-2.36c.22-.81.43-1.64.63-2.3l.8-2.64-1.26-2.45c-.83-1.61-1.68-3.17-2.51-4.7-3.92-7.2-6.78-12.45-5.76-19.62,2.57-7.13,8.01-10.18,16.57-14.5.89-.45,1.79-.91,2.68-1.37l3.01-1.55.76-4.36c.24-1.27.51-2.71.6-4.14l.08-1.22-.35-1.17c-2.79-9.24-1.67-18.49,3.22-26.77l.56-.94c.79-1.32,1.48-2.5,1.93-3.42l1.27-2.6-.99-2.72c-4.46-12.25-1.44-23.49,8.08-30.08,1.31-.9,2.73-1.71,4.24-2.39l.88-.4c.4-.01.89-.01,1.26-.01h8.7s-2.11-8.44-2.11-8.44c-1.86-7.44.12-12.26,6.82-16.62,1.24-.81,2.67-1.61,4.24-2.37l3.09-1.5.62-3.38c2.94-15.95,17.55-17.32,26-16.72,1.78.13,3.59.37,5.37.72l2.46.48,2.18-1.23c9.97-5.62,20.22-7.83,28.13-6.07,1.33.3,2.63.71,3.85,1.24l1.47.63,1.6-.09c11.11-.64,18.56.32,24.9,3.22l1.12.52c1.21.57,2.37,1.1,3.4,1.47l1.99.71,2.04-.54c7.69-2.03,15.47-1.18,21.35,2.34,4.73,2.83,7.92,7.21,9.22,12.65l.52,2.18,1.71,1.44c1.69,1.42,3.78,2.35,5.62,3.16,9.37,4.15,17.99,8.95,25.66,14.3l8.29,5.79,2.23-9.87c.55-2.43,1.48-4.22,2.78-5.3l3.41-2.85-1.25-4.27c-5.62-19.22-14.56-36.09-26.58-50.15-9.51-11.13-19.28-18.34-27.9-24.7-11.98-8.84-22.34-16.49-30.34-32.68,6.38,1.27,18.79,6.28,30.17,12.38l18.26,9.79-8.91-18.7c-8.8-18.45-15.33-38.25-14.84-44.52,1.83-.22,3.59.18,5.43,1.2,10.17,5.64,17.81,26.4,19.9,33.93l13.31-2.45c-1.29-13.56-.43-35.64,5.49-42.25,1.17-1.31,2.14-1.5,3.01-1.51h.08c8.04,0,12.13,17.69,12.61,35.28l13.58-.05c.44-21.65,4.58-32.29,8-34.83.58-.43,1.29-.81,2.98-.34,12.73,3.56,11.13,31.18,9.56,40.58l13.15,3.27c4.34-12.98,13.91-32.69,21.63-35.86,1.23-.5,1.97-.35,2.76.05,9.46,4.81,3.86,26.87-.33,36.8l12.49,5.36c6.69-15.39,15.11-30.26,20.5-36.71-1.21,7.81-6.31,22.56-12.85,36.38l11.65,6.89c13.04-18.02,32.32-36.34,39.15-33.86.04.01.08.03.11.04,1.03,4.37-8.36,20.35-19.66,33.37l-33.1,38.14,42-28.04c11.77-7.85,24.51-14.85,31.93-17.75-1.89,3.06-5.78,6.5-10.63,10.78-15.39,13.6-41.13,36.36-55.99,95.25l-1.11,4.4,3.65,2.71c.76.56,2.66,2.57,3.93,9.06l2.21,11.27,9.06-7.57c.61-.51,1.21-1.01,1.83-1.52l.89-.72c.74-.6,1.49-1.21,2.23-1.82l1.2-1,.65-1.42c4.59-10.05,16.28-17.22,31.29-19.17l1.12-.14,2.66-1.31c.85-.41,1.69-.83,2.52-1.24l1.7-.85,1.01-1.61c5.08-8.1,14.79-13.31,24.79-13.31h.15c1.39,0,2.79.12,4.14.33l3.34.53,2.43-2.34c9.03-8.69,19.22-9.91,31.15-3.73,1.52.79,3.07,1.7,4.61,2.71l2.49,1.64,2.89-.72c13.68-3.42,25.61-1.07,33.59,6.61,1.17,1.12,2.26,2.37,3.25,3.71l1.74,2.35,2.91.35c12.43,1.51,23.13,7.95,27.25,16.41.6,1.23,1.07,2.53,1.41,3.85l1.05,4.18,4.23.83c11.08,2.17,20.35,11.41,22.55,22.48.25,1.27.43,2.6.52,3.97.02,1,.2,1.87.39,2.62l-10.48,6.81,13.42,4.44c18.03,5.97,20.1,21.41,18.67,33.32-.08.63-.16,1.22-.24,1.74-.72.68-1.35,1.45-2.46,2.84l-7.2,9.03,11.39,1.91c9.34,1.56,22.63,8.34,20.99,20.62l-.04.32c-.27,3.15-1.45,6.12-3.84,9.64-.72,1.06-1.49,2.1-2.29,3.12l-25.83,2.94,24.64,10.04c6.82,2.78,11.81,8.01,14.05,14.73,2.13,6.38,1.47,13.44-1.78,18.88-.21.36-.44.7-.67,1.03-.15.02-.32.03-.5.06l-32.89,3.72,31.69,9.54c10.97,3.3,18.72,11.44,21.86,22.95.63,6.77-2.02,11.24-6.18,15.83-.73.81-1.33,1.4-1.77,1.76-4.26,2.41-7.03,6.29-8.02,11.28-.42,2.13-.51,4.41-.27,6.78l.35,3.46,3.01,1.74c14.6,8.41,21.11,23.55,15.82,36.8-.58,1.45-1.3,2.88-2.15,4.25l-1.34,2.17.42,2.51c-.06-.39.16-1.58,1.19-2.58.91-.88,1.95-1.14,2.54-1.16l-5.42,12.35c7.2,3.71,11.63,9.35,13.16,16.78,1.97,9.53-1.23,20.83-8.36,29.51-1.1,1.34-2.29,2.61-3.54,3.77l-5.34,4.95,5.31,4.98c12,11.26,25.37,33,13.01,46.74-.82.91-1.72,1.75-2.68,2.5-1.27.57-2.29,1.3-3.09,1.86-.19.13-.38.27-.56.4l-17.59,1.99,15.2,10.31c11.83,8.03,24.61,21.22,18.29,38.48-.36.98-.84,1.75-1.5,2.4-.63.62-1.47,1.19-2.57,1.72l-.31.15c-1.53-.55-3.86-1.28-6.69-.95l-14.42,1.63,10.48,10.03c8.39,8.03,15.86,21.56,9.42,33.37-3.84,6.01-9.45,9.68-15.81,10.33-.59.06-1.17.09-1.76.09-.16-.21-.3-.4-.39-.52-3.99-5.33-8.6-2.96-9.49-2.43-5.19,3.1-3.3,7.57-.69,13.2.9,3.1,1.9,6,2.87,8.8,2.47,7.16,4.6,13.36,4.3,20.43-2.08,12.34-12.09,15.18-20.15,15.38-1.46.04-2.95-.02-4.45-.17l-.62-.06-.34.03c-.55-.26-1.64-1.13-2.38-1.72l-15.49-12.34,4.65,19.25c1.41,5.85,4.91,25.53-9.47,32.85-7.3,3.72-12.97.65-22.37-5.1l-1.05-.65c-1.17-.72-2.32-1.42-3.44-2.09l-2.64-1.58-2.93.95,1.39,4.32-6.95.44c.01,8.34-3.23,16.25-8.46,20.63-4.12,3.44-9.23,4.65-15.17,3.57-6.77-1.13-10.08-6.75-14.73-15.88l-.16-.31c-.71-1.4-1.42-2.78-2.15-4.14l-.43-.8-.63-.66c-4.55-4.78-9.98-7.23-14.77-9.39-6.91-3.11-10.37-4.89-11.83-10.35-.55-5.58.45-11.33,2.69-15.46.3-.56.63-1.1.98-1.6,1.14-.53,1.99-1.18,2.6-1.74l40.05-4.52-40.96-8.7c-9.22-1.96-12.42-8.9-13.5-12.86-2.12-7.74.16-16.34,5.66-21.39.93-.85,1.87-1.53,2.81-2.01l11.81-6.06-11.81-6.04c-17.85-9.12-14.16-20.79-5.51-42.33l.86-2.15c.69-1.73,1.35-3.36,1.8-4.42l2.56-5.99-5.87-2.81c-6.34-3.03-10.54-8.2-11.83-14.55-1.4-6.89.72-14.15,5.81-19.93.23-.26.45-.5.65-.71.71.1,1.49.13,2.35.03l28.6-3.23-27.03-9.9c-6.27-2.3-11.21-7.71-13.59-14.87-2.15-9.99,3.07-14.85,13.17-23.2l.5-.41c1.32-1.09,2.61-2.16,3.63-2.85l8.81-5.98-9.14-5.47c-7.43-4.45-11.56-11.25-11.63-19.15-.07-8.6,4.84-17.03,12.83-21.98l3.11-1.93.2-7.58c.45-16.22,1.03-33.08,1.72-50.13l-13.45-1.61c-5.87,29.35-15.43,58.96-28.43,88.02-9.01,16.74-10.73,41.12-12.54,66.92-3.87,55.1-7.88,112.07-74.96,122.97-106.64,17.33-124.65-50.23-137.8-99.57-12.69-47.61-54.9-87.92-68.77-101.17l-4.19-4-4.61,3.5c-2.42,1.84-5.31,2.96-8.57,3.32l.75,13.55c1.86,0,3.04.13,3.5.38l.78.63c1.49.99,3.05,1.92,4.61,2.86l.28.17c6.11,3.65,9.96,6.19,11.29,11.73.96,7.17-.78,14.86-4.45,19.66-2.38,3.12-5.36,4.86-9.1,5.33l-5.95.74v6c0,3.34,1.57,5.97,4.68,7.84,1.05,1.32,2.21,2.65,3.56,4.05,1.74,1.82,3.56,3.54,5.32,5.21,8.09,7.67,13.06,12.89,11.85,21.81-4.68,11.45-9.1,16.34-14.74,16.34v13.59c.94,0,1.56,0,2.14.11.69.97,1.36,1.96,2.02,2.95,4.95,7.5,9.09,15.77,12.67,25.27,3.25,11.25-5.39,16.65-19.96,24.18-1.34.69-2.66,1.37-3.93,2.05l-7.82,4.17,6.91,7.38c.98,1.05,1.96,2.09,2.91,3.13,6.05,6.65,9.13,11.47,8.06,17.87-.89,6.2-4.14,8.52-10.29,12.41-2.86,1.81-5.83,3.69-8.53,6.29l-4.14,3.98,3.24,4.75c.07.1.46.71,1.3,2.56,1.83,4.03,3.81,9.23,3.02,14.01-3.72,10.53-13.34,14.51-32.06,13.35l-4.86-.31-1.85,4.51c-.66,1.61-1.23,3.38-1.72,5.39-.37,1.5-.68,3.01-.98,4.52-1.12,5.63-1.94,9.72-6.38,13.38-7.28,4.69-16.87,3.96-28.53-2.16l-4.29-2.26-3.53,3.32c-.76.72-1.52,1.65-2.48,2.82l-1.1,1.34c-3.44,4.12-12.54,13.12-22.82,7.99l-.89-.37c-4.53-1.51-7.72-5.54-11.42-10.2-3.46-4.37-7.39-9.32-13.08-12.6l-3.43-1.98-3.42,2.01c-1.19.7-2.38,1.31-3.53,1.82-6.63,2.91-12.23,2.46-17.63-1.4-9.11-6.38-9.28-13.81-9.52-24.1-.17-7.08-.36-15.1-4.13-22.85l-1.2-2.47-2.59-.94c-1.39-.51-2.7-1.15-3.87-1.91-11.59-7.53-8.38-27.93-6.04-42.83l.79-5.06-2.2-2.41c-.99-1.08-1.87-2.26-2.63-3.49-8.7-14.22-.51-36.41,12.59-48.2Z"/>
      <path class="cls-3" d="m578.19,333.74l-13.57.69c-.12-1.87-.27-3.7-.45-5.52l13.5-1.56c.26,1.97.43,4.12.53,6.38Z"/>
    </g>
    <path class="cls-4" d="m324.34,230.21s4.11-54.04-31.29-95.44c-21.99-25.72-44.62-28.75-59.47-59.41-11.32-23.39,39.77,4.01,39.77,4.01,0,0-23.92-50.15-12.23-53.63,22.66-6.74,35.4,39.5,35.4,39.5,0,0-4.87-50.9,15.17-51.2,21.49-.32,19.59,48.56,19.59,48.56,0,0-1.95-54.27,19.59-48.24,21.55,6.03,14.43,48.24,14.43,48.24,0,0,16.22-48.71,33.92-39.71,18.23,9.27,2.84,45.51,2.84,45.51,0,0,20.86-48.04,30.97-43.61,10.11,4.42-10.96,48.9-10.96,48.9,0,0,30.55-42.26,46.98-36.26,16.43,6-16.75,44.24-16.75,44.24,0,0,57.67-38.52,42.03-9.48-10.15,18.84-62.26,31.29-75.22,157.07"/>
    <path class="cls-4" d="m571.5,353.87s11.79,75.11-34.45,178.31c-26.41,48.45,13.75,176.31-92.51,193.59-110.71,18-131.72-53.01-145.46-104.52-14.86-55.74-71.2-100.74-79.24-109.93-8.04-9.19-48.27-65.51-55.16-124.12-6.9-58.61-10.34-134.46,40.22-154,50.57-19.54,376.94-82.74,366.6,120.67Z"/>
    <path class="cls-5" d="m480.95,644.6s20.97-67.9-29.96-73.89c-50.93-5.99-76.89-3-83.88,11.98-6.99,14.98-19.97,68.9,16.98,81.88,36.95,12.98,85.87,11.98,96.86-19.97Z"/>
    <path class="cls-5" d="m487,430.79s50.02-15.36,38.76-41.44c-11.26-26.09-39.62-25.45-55.6-21.85-15.98,3.61-50.91,15.49-35.54,50.62,8.13,17.5,52.38,12.67,52.38,12.67Z"/>
    <path class="cls-4" d="m463.32,291.05s113.41-29.5,107.96,51.78c-1.71,25.53-5.12,83.3-6.97,149.88-.04,1.31-.07,2.61-.11,3.93-19.79,12.29-22.52,39.92-1.1,52.74-1.31.89-2.73,2.07-4.15,3.24-9.9,8.18-19.3,15.65-15.9,30.63,3.02,9.42,9.67,16.47,17.81,19.46-1.93.22-2.14-1.71-3.22-.74-1.41.86-2.84,2.23-4.12,3.68-12.78,14.5-10.13,36.33,8.18,45.1-.52,1.22-1.3,3.17-2.1,5.16-7.98,19.92-16.75,39.76,8.1,52.46-1.57.8-3.01,1.85-4.31,3.05-14.3,13.13-10.98,41.23,11.02,45.9-1.93.22-1.71,2.14-4.33,2.48-1.12,1.28-2.09,2.69-2.9,4.19-3.26,6.01-4.15,13.48-3.43,19.9,3.67,15.2,19.08,13.46,28.39,23.23.76,1.41,1.49,2.86,2.24,4.32,4.46,8.74,9.13,17.73,19.58,19.48,19.92,3.6,31.67-13.34,31.64-30.9,0,0,.22,1.93.85,1.72,1.41.84,2.88,1.75,4.37,2.66,8.95,5.48,17.99,11.04,29.07,5.4,14.76-7.52,16.66-25.3,12.99-40.5,2.14,1.71,4.29,3.42,6.9,3.2,1.75.17,3.52.24,5.28.2,12.35-.3,24.39-6.17,26.76-21.46.62-11.78-4.32-20.98-7.55-32.32-5.16-11.13,0,0,2.33-1.14,1.45.1,2.89.08,4.31-.07,8.5-.87,16-5.74,20.97-13.62,8.11-14.58.37-31.27-10.57-41.74,3.85-.44,6.22,3.2,9.21.16,1.6-.78,3.1-1.74,4.38-3.01,1.28-1.27,2.35-2.85,3.1-4.89,7.46-20.36-6.06-36.4-20.86-46.43,1.93-.22,3.64-2.36,5.57-2.95,1.66-1.2,3.12-2.53,4.38-3.93,15.16-16.84,1.78-41.99-13.41-56.24,1.49-1.38,2.88-2.87,4.17-4.44,14.2-17.28,15.85-44.9-6.95-56.64,4.07,1.49,5.78-.65,5.28-3.69,1.07-1.73,1.96-3.5,2.67-5.3,6.47-16.23-.91-34.94-18.74-45.21-.17-1.67-.12-3.28.18-4.77.59-2.98,2.11-5.35,5.04-6.87,1.05-.74,2.11-1.81,3.13-2.93,5.08-5.6,8.93-11.99,7.84-21.62-3.45-13.27-12.46-23.96-26.61-28.22q1.93-.22,3.26-.46c1.13-1.15,2.12-2.45,2.98-3.89,8.61-14.4,3.21-35.75-15.54-43.39,1.93-.22,3.85-.44,3.79-2.24.97-1.23,1.9-2.47,2.76-3.74,2.59-3.83,4.56-7.95,4.98-12.88,2.11-15.85-12.68-25.89-26.61-28.22q1.71-2.14,3.34-3.32c.27-1.02.57-2.78.8-4.68,2.06-17.09-3.51-34.03-23.28-40.58,3.64-2.36,1.27-6,1.34-7.64-.11-1.65-.32-3.37-.65-5.07-2.7-13.59-13.8-25.06-27.91-27.82-.45-1.81-1.09-3.53-1.89-5.17-5.58-11.44-18.99-18.53-32.54-20.18-1.23-1.67-2.57-3.19-4-4.57-10.02-9.63-24.6-12.14-39.95-8.3-1.7-1.12-3.44-2.15-5.21-3.07-12.4-6.43-26.29-7.36-38.99,4.87-1.71-.27-3.43-.41-5.16-.41-12.09-.06-24.22,6.11-30.73,16.5-1.35.68-2.75,1.35-4.13,2.03-15.66,2.03-30.42,9.56-36.59,23.09-1.02.84-2.06,1.67-3.08,2.51-34.81,28.32-51.11,59.09-51.11,59.09l77.75,43.26Z"/>
    <path class="cls-4" d="m335.47,211.81s-13.6-19.64-49-35.3c-1.54-.68-3.08-1.36-4.03-2.16-4.01-16.84-21.46-24.6-38.92-19.98-1.17-.42-2.55-1.12-3.99-1.78-8.6-3.93-18.16-4.39-28.11-3.82-1.63-.7-3.31-1.23-5.04-1.62-10.37-2.32-22.31.78-32.95,6.78-2.03-.39-4.1-.67-6.19-.82-14.61-1.05-29.86,4.33-33.16,22.27-1.75.85-3.42,1.77-4.97,2.78-7.77,5.05-12.61,12.33-9.7,23.96-1.94,0-3.88,0-4.95,1.02-1.89.86-3.66,1.86-5.29,2.99-11.45,7.91-16.37,22.16-10.6,37.99-.49,1.01-1.33,2.36-2.23,3.89-5.43,9.19-7.48,20.25-3.88,32.19-.09,1.38-.49,3.14-.71,4.45-9.18,4.74-18.87,8.62-22.75,20.25-1.94,11.64,3.88,19.39,8.85,29.07-.25.83-.54,1.92-.81,2.95-9.7,8.81-16.41,20-16.07,31.32.05,1.62.24,3.24.59,4.85-11.1,10.61-17.05,26.38-10.2,40.16.86,1.72,1.9,3.4,3.11,4.94.97-.81.97,1.13,2.91,1.13-15.51,1.94-25.21,17.45-21.33,31.03.97,4.85,2.91,8.24,5.55,11.18.88.98,1.8,1.85,2.47,2.14q1.68.26,3.62.26c-7.76,1.94-15.51,7.76-19.39,13.58-6.79,12.22-2.17,22.53,5.55,30.95,1.1,1.2,2.03,2.06,2.56,2.33-.36-.31,1.58-.31,1.58-.31-13.58,9.5-15.75,24.71-9.83,37.2.85,1.79,1.86,3.52,3.02,5.17.99,2.24,4.87,2.24,6.81,2.24-5.82,3.88-15.51,5.82-19.39,11.64-8.15,11.64-5.12,21.88,1.43,30.18,1.09,1.38,2.28,2.71,3.46,3.94-12.15,15.21-11.49,33.9.64,47.04,1.21,1.31,2.52,2.54,3.9,3.62q2.21.56,4.15.56c-15.24,13.71-24.49,39.4-13.84,56.8.97,1.58,2.1,3.1,3.41,4.52-2.61,16.77-7.09,41.11,8.76,51.41,1.59,1.03,3.36,1.92,5.26,2.6,8.06,16.54-3.58,35.93,15.81,49.5,8.48,6.06,16.97,5.3,24.3,2.09,1.47-.64,2.89-1.38,4.25-2.19,10.24,5.91,14.11,19.49,25.75,23.37,11.64,5.82,23.27-.36,31.08-9.7,1.3-1.56,2.39-2.97,3.03-3.57,10.5,5.52,24.08,9.4,35.71,1.64,8.08-6.46,8.08-14.28,9.93-21.76.37-1.5.82-2.98,1.41-4.44,15.8.99,33.26-.95,39.07-18.4,1.29-6.46-.86-12.93-3.42-18.55-.64-1.41-1.3-2.73-1.88-3.57,7.24-6.96,18.87-8.9,20.81-22.48,1.62-9.7-3.5-16.7-9.74-23.56-1.25-1.37-2.54-2.74-3.83-4.12,13.57-7.23,32.96-14.99,27.14-34.38-3.64-9.7-8.03-18.64-13.44-26.85-1.08-1.64-2.21-3.26-3.37-4.84-2.58-1.28-4.52-1.28-6.46-1.28,11.64,0,17.45-11.64,21.33-21.33,2.72-16.29-9.77-24.03-18.86-33.53-1.3-1.36-2.53-2.75-3.63-4.21-.78-1.04-2.71-1.04-2.71-2.98,15.51-1.94,21.33-19.39,19.39-32.97-1.94-8.73-8.24-12.61-14.5-16.34-1.56-.93-3.12-1.86-4.61-2.85-2.22-2.15-6.1-2.15-8.04-2.15,17.45-1.94,25.21-19.39,19.39-34.91-6.21-12.41-18.62-17.38-26.4-28.11-.97-1.34-1.83-2.72-2.28-3.85,13.6-16.61,3.96-35.55-7.66-49.95-1.29-1.6-2.6-3.13-3.76-4.47,12.95-16.4,5.19-37.73-9.43-50.2-.45-1.94-.67-3.72-.44-5.05,15.06-15.45,5.37-36.78-5.54-51.6-.54-1.4-.25-3.41.28-5.47,18.12-58.85,151.05-82.48,151.05-82.48Z"/>
    <path class="cls-5" d="m330.05,444.52s41.99-.86,41.73-34.73c-.26-33.88-47.62-46.99-60.08-47.96-12.46-.97-63.77-4.05-65.86,38.14-2.1,42.19,63.1,45.93,84.21,44.56Z"/>
    <path class="cls-5" d="m422.16,670.35s3.97,5.24-1.65,6.37c-2.36.47-9.99,1.21-18.04,1.91-3.79.33-3.96,5.81-.19,6.36,7.15,1.04,15.23,1.85,23.1,1.85,6.17,0,11.85-.64,16.82-1.57,3.65-.68,3.33-5.97-.37-6.23-8.88-.62-16.03-2.76-10.84-8.68,10.86-12.36-8.84,0-8.84,0Z"/>
    <path class="cls-6" d="m434.41,227.43s7.17-49.1-10.43-51.88c-17.6-2.78-95.54,3.89-95.54,3.89,0,0-19.83-2.96-15.26,27.61,4.56,30.57,3.26,36.13,22.81,32.89,19.55-3.24,97.04,12.51,98.42-12.51Z"/>
  </g>
  <g>
    <rect class="cls-2" x="595.49" y="394.87" width="259.32" height="491.48" rx="34.9" ry="34.9" transform="translate(157.61 -143.05) rotate(12.63)"/>
    <path class="cls-5" d="m714.36,400.33h120.34v26.63c0,7.26-5.9,13.16-13.16,13.16h-94.02c-7.26,0-13.16-5.9-13.16-13.16v-26.63h0Z" transform="translate(110.62 -159.18) rotate(12.63)"/>
    <path class="cls-4" d="m806.21,762.82l-54.85-118.7,106.13-70.68-19.67-4.41-20.76,13.76-71.9,47.91-39.24-84.91-3.25-7.04-68.17-15.28,11.76,25.45,52.17,112.91-111.92,74.57,19.67,4.41,98.46-65.57,41.92,90.72,3.25,7.03,68.17,15.28-11.76-25.45Zm-45.21-1.87l-43.55-94.25-6.2-13.42-50.53-109.37,30.74,6.89,40.87,88.45,6.2,13.42,53.22,115.17-30.74-6.89Z"/>
    <path class="cls-1" d="m867.53,699.56s1.03,67.3-43.41,60.57c-44.44-6.74-26.91-52.98,7.68-60.92"/>
    <path class="cls-1" d="m887.86,638.12s4.7,45.59-8.85,63.48c-13.56,17.89-30.49,16.24-44.7,13.06-14.2-3.18-34.77-36.27,9.39-56.4"/>
    <path class="cls-1" d="m872.95,580.4s48.47,18.02,14.73,76.28c-13.12,20.23-31.76,11.43-44.57,1.15-10.88-8.73-11.78-23.72-1.75-32.44,6.24-5.43,14.92-9.49,26.35-7.52"/>
    <path class="cls-1" d="m577.94,542.48s6.17-34.63,37.99-27.5c31.82,7.13,7.49,58.91,7.49,58.91,0,0-9,22.31-29.06,17.81-20.07-4.5-19.06-37.41-16.41-49.22Z"/>
  </g>
</svg>