<svg width="34" height="24" viewBox="0 0 34 24" fill="none" xmlns="http://www.w3.org/2000/svg">
<g clip-path="url(#clip0_41_1537)">
<path d="M34 12.0316C33.8673 14.2147 33.7766 16.3978 33.5951 18.5739C33.4974 19.69 33.1554 20.778 32.5621 21.7467C31.9408 22.7645 31.0125 23.3963 29.8189 23.5156C28.5345 23.642 27.2502 23.7754 25.9659 23.8175C22.9226 23.9087 19.8792 23.993 16.8289 24.007C14.2742 24.0211 11.7125 23.9438 9.15783 23.8807C7.98517 23.8526 6.81252 23.7964 5.63986 23.6982C4.92092 23.642 4.20197 23.5437 3.51094 23.3682C2.24056 23.0453 1.40993 22.196 0.921326 20.9816C0.38386 19.6549 0.160497 18.265 0.125597 16.84C0.0627758 14.2919 -0.0140051 11.7438 0.00693515 9.19567C0.0208953 7.75665 0.174457 6.31764 0.36292 4.89968C0.453661 4.20474 0.718904 3.51682 0.991127 2.86399C1.54953 1.53027 2.54071 0.67388 3.99256 0.49839C5.3118 0.343959 6.63104 0.196547 7.95027 0.161449C11.4264 0.0701945 14.9024 0.0140378 18.3785 -1.41555e-06C20.668 -0.00702101 22.9575 0.0491358 25.2469 0.119332C26.5662 0.161449 27.8924 0.273763 29.2116 0.379057C30.3633 0.477331 31.4034 0.84235 32.2061 1.7549C32.7575 2.37964 33.0018 3.14478 33.2601 3.90289C33.7277 5.2647 33.7207 6.68967 33.8115 8.09359C33.8953 9.39924 33.8953 10.7119 33.9371 12.0175C33.9581 12.0246 33.979 12.0316 34 12.0316ZM13.4576 16.3908C16.4939 14.7973 19.4744 13.2319 22.5247 11.6315C19.4744 10.031 16.4869 8.46563 13.4576 6.87218C13.4576 10.0731 13.4576 13.1968 13.4576 16.3908Z" fill="#023744"/>
<path d="M13.4575 16.3908C13.4575 13.1898 13.4575 10.0661 13.4575 6.87218C16.4869 8.46563 19.4744 10.031 22.5247 11.6315C19.4744 13.2319 16.4869 14.7973 13.4575 16.3908Z" fill="white"/>
</g>
<defs>
<clipPath id="clip0_41_1537">
<rect width="34" height="24" fill="white"/>
</clipPath>
</defs>
</svg>
