<svg fill="none" height="21" viewBox="0 0 14 21" width="14" xmlns="http://www.w3.org/2000/svg"><path d="m.562886 11.3787 9.502014-11.085779c.1594-.18592.392-.292921.6369-.292921.6022 0 1.0082.615733.771 1.16924l-2.7776 6.4811c-.02446.05707-.03707.11852-.03707.18062 0 .25323.20528.45851.45851.45851h3.69886c.4508 0 .8163.36546.8163.81628 0 .18697-.0642.36828-.1818.5136l-8.9633 11.07225c-.15789.1951-.39542.3084-.64636.3084-.59702 0-.99954-.6104-.76437-1.1592l2.78192-6.4911c.02447-.0571.03708-.1186.03708-.1807 0-.2532-.20529-.4585-.45852-.4585h-4.26099c-.445588 0-.806808-.3612-.806808-.8068 0-.1926.068896-.3788.194234-.525z" fill="#fff"></path></svg>