<svg xmlns="http://www.w3.org/2000/svg" width="40" height="40" viewBox="0 0 40 40" fill="none"><rect width="40" height="40" rx="12" fill="#282828"></rect><path d="M20.9761 11.1425C20.5806 10.2858 19.4002 10.2858 19.0047 11.1425L16.9291 15.638C16.8437 15.8229 16.6731 15.9503 16.4763 15.9759L11.9566 16.5651C11.0553 16.6826 10.6789 17.8193 11.3217 18.4824L12.5988 19.7998C13.357 20.582 14.4319 20.9421 15.4903 20.7686L20.6236 19.927C20.6814 19.9175 20.7392 19.9437 20.7717 19.994C20.821 20.0704 20.7953 20.1742 20.7165 20.2168L16.3386 22.5855C15.411 23.0874 14.7641 24.0086 14.5901 25.0753L14.249 27.1677C14.0975 28.0968 15.0503 28.797 15.8504 28.3444L19.7106 26.1609C19.8849 26.0623 20.0958 26.0623 20.2701 26.1609L24.1559 28.3588C24.9514 28.8088 25.9006 28.119 25.7591 27.1936L25.0597 22.6181C25.0308 22.4293 25.0905 22.2376 25.2206 22.1015L28.6837 18.4793C29.3196 17.8142 28.9412 16.6847 28.0434 16.5676L23.5044 15.9759C23.3076 15.9503 23.137 15.8229 23.0516 15.638L20.9761 11.1425Z" fill="white"></path></svg>