<svg xmlns="http://www.w3.org/2000/svg" width="40" height="40" viewBox="0 0 40 40" fill="none"><rect width="40" height="40" rx="12" fill="#282828"></rect><path fill-rule="evenodd" clip-rule="evenodd" d="M11.2374 18.9574C16.0692 16.8406 19.2912 15.445 20.9033 14.7707C25.5063 12.8456 26.4627 12.5112 27.0861 12.5001C27.2232 12.4977 27.5298 12.5319 27.7284 12.6939C27.8961 12.8307 27.9422 13.0155 27.9643 13.1452C27.9864 13.275 28.0139 13.5705 27.992 13.8014C27.7426 16.4368 26.6633 22.8322 26.1142 25.7838C25.8818 27.0328 25.4244 27.4516 24.9815 27.4926C24.0189 27.5816 23.288 26.8529 22.3558 26.2384C20.897 25.2769 20.0729 24.6783 18.6569 23.74C17.0205 22.6556 18.0813 22.0596 19.0139 21.0856C19.258 20.8307 23.4988 16.9519 23.5809 16.6C23.5912 16.556 23.6007 16.392 23.5038 16.3053C23.4069 16.2187 23.2639 16.2483 23.1606 16.2719C23.0143 16.3053 20.6839 17.8542 16.1694 20.9185C15.5079 21.3753 14.9087 21.5978 14.3719 21.5862C13.7801 21.5733 12.6417 21.2497 11.7955 20.9731C10.7575 20.6338 9.93252 20.4544 10.0044 19.8782C10.0418 19.5781 10.4528 19.2712 11.2374 18.9574Z" fill="white"></path></svg>