<svg xmlns="http://www.w3.org/2000/svg" width="40" height="40" viewBox="0 0 40 40" fill="none"><rect width="40" height="40" rx="12" fill="#282828"></rect><path d="M29.1429 14.5219C29.2945 14.4645 29.2968 14.2407 29.1463 14.1799L20.0627 10.5122C20.0223 10.4959 19.9777 10.4959 19.9373 10.5122L10.8537 14.1799C10.7032 14.2407 10.7055 14.4645 10.8571 14.5219L19.9408 17.9604C19.979 17.9749 20.021 17.9749 20.0592 17.9604L29.1429 14.5219Z" fill="white"></path><path d="M29.4701 15.5612C29.563 15.4146 29.4237 15.2288 29.2657 15.2886L20.4801 18.6142C20.4111 18.6404 20.3651 18.709 20.3651 18.7859V29.3171C20.3651 29.4979 20.5891 29.5687 20.6846 29.4181L29.4701 15.5612Z" fill="white"></path><path d="M19.3154 29.4181C19.4109 29.5687 19.6349 29.4979 19.6349 29.3171V18.7859C19.6349 18.709 19.5889 18.6404 19.5199 18.6142L10.7343 15.2886C10.5763 15.2288 10.437 15.4146 10.5299 15.5612L19.3154 29.4181Z" fill="white"></path></svg>