<svg xmlns="http://www.w3.org/2000/svg" width="40" height="40" viewBox="0 0 40 40" fill="none"><rect width="40" height="40" rx="12" fill="#282828"></rect><path d="M18.986 12.2104C18.9872 12.2086 18.9878 12.2067 18.9881 12.2045C18.9882 12.2022 18.9894 12.2008 18.9918 12.2005C19.0889 12.1875 19.171 12.1804 19.2381 12.1792C19.3175 12.1776 19.4245 12.1834 19.5592 12.1965C19.5655 12.1972 19.5705 12.2001 19.5741 12.2053C19.5791 12.2128 19.5871 12.2173 19.5964 12.2177C19.7252 12.2239 19.8278 12.2334 19.9042 12.2462C20.0631 12.2728 20.2267 12.3003 20.3873 12.3433C20.5168 12.3782 20.6419 12.4177 20.7726 12.4269C21.0686 12.4478 21.3591 12.3881 21.6379 12.2915C21.9023 12.1999 22.1599 12.0923 22.4106 11.9687C22.6086 11.8709 22.802 11.7746 22.9907 11.6796C23.086 11.6316 23.1783 11.5834 23.2676 11.535C23.7651 11.2656 24.2077 11.0374 24.5954 10.8503C24.7476 10.7769 24.9332 10.692 25.1522 10.5957C25.4183 10.4786 25.6936 10.3724 25.9779 10.277C26.0653 10.2477 26.1652 10.2175 26.2776 10.1864C26.7614 10.0522 27.2832 9.96878 27.7854 10.011C28.1027 10.0377 28.4019 10.1136 28.6829 10.2388C28.8631 10.3191 29.0436 10.4287 29.2245 10.5676C29.4292 10.7248 29.6287 10.9231 29.8229 11.1623C29.8945 11.2503 29.9432 11.3494 29.9691 11.4596C29.9884 11.5424 29.9987 11.6427 29.9998 11.7608C30.0015 11.9296 29.9904 12.0743 29.9666 12.1948C29.867 12.6985 29.6457 13.1855 29.352 13.5954C29.0326 14.0415 28.6449 14.4101 28.189 14.7013C28.1043 14.7555 28.0125 14.8101 27.9137 14.865C27.7656 14.9472 27.6242 15.0302 27.4721 15.1085C26.9934 15.3548 26.6203 15.534 26.1869 15.7433C26.1543 15.759 26.1211 15.7766 26.0873 15.7963C26.0132 15.8395 25.9349 15.8734 25.873 15.9315C25.8376 15.9649 25.8066 16.0017 25.7801 16.0419C25.7098 16.1487 25.6503 16.2805 25.6016 16.4372C25.5498 16.604 25.5162 16.7184 25.5008 16.7803C25.4377 17.0335 25.3781 17.3049 25.3219 17.5946C25.2669 17.8777 25.2153 18.1565 25.1669 18.4308C25.075 18.9521 24.989 19.426 24.9089 19.8525C24.8862 19.9728 24.8655 20.0934 24.8412 20.2123C24.8189 20.3217 24.8048 20.4322 24.7809 20.5396C24.7581 20.6433 24.7407 20.7506 24.7183 20.8512C24.7 20.9339 24.6842 21.0142 24.6709 21.0922C24.6658 21.1218 24.6589 21.1522 24.65 21.1833C24.623 21.2764 24.6148 21.3755 24.5881 21.4662C24.5635 21.5501 24.5585 21.6383 24.5344 21.722C24.5246 21.7564 24.5159 21.7916 24.5084 21.8276C24.5006 21.8652 24.4928 21.901 24.485 21.9352C24.4371 22.1446 24.3835 22.3696 24.3244 22.61C24.2786 22.7959 24.236 22.9352 24.1814 23.1429C24.1599 23.2246 24.1363 23.3074 24.1106 23.3914C24.0866 23.4694 24.0688 23.5475 24.044 23.6254C24.0266 23.6799 24.015 23.7368 23.9958 23.791C23.9882 23.8127 23.981 23.8345 23.9742 23.8565C23.7853 24.4608 23.5852 25.0148 23.3739 25.5186C23.2087 25.9126 23.0089 26.3216 22.7743 26.7456C22.7451 26.7985 22.7128 26.8496 22.6835 26.9028C22.6161 27.0242 22.5316 27.1632 22.4302 27.3198C22.2786 27.554 22.1054 27.7901 21.9108 28.028C21.8233 28.135 21.7252 28.2421 21.632 28.3434C21.3252 28.6768 20.9832 28.9683 20.6059 29.2178C20.4325 29.3326 20.2508 29.4354 20.0607 29.5264C19.6174 29.7384 19.1558 29.8794 18.676 29.9492C18.5421 29.9687 18.4613 29.98 18.4334 29.9831C18.3512 29.992 18.2694 29.9974 18.1882 29.9993C18.0504 30.0026 17.9323 29.9949 17.8002 29.9565C17.6819 29.922 17.5845 29.8869 17.5079 29.8509C17.4105 29.8053 17.3123 29.7601 17.2195 29.7071C16.9329 29.5437 16.6576 29.3472 16.3934 29.1175C16.3853 29.1105 16.3763 29.1037 16.3664 29.0971C16.3484 29.0852 16.3407 29.0637 16.3217 29.051C16.3126 29.0448 16.3037 29.038 16.2952 29.0305C16.2504 28.9913 16.2064 28.9502 16.1631 28.9073C16.1545 28.8987 16.1485 28.8852 16.1375 28.8793C16.1162 28.8677 16.1014 28.852 16.0933 28.8321C16.0901 28.8245 16.0845 28.8194 16.0765 28.8169C16.0536 28.8097 16.0396 28.7943 16.0347 28.771C16.0324 28.7603 16.0258 28.7542 16.0149 28.7527C15.9925 28.7494 15.98 28.7363 15.9773 28.7134C15.9767 28.7091 15.9753 28.705 15.973 28.7014C15.9706 28.6977 15.9676 28.6946 15.9639 28.6922C15.9597 28.6895 15.9551 28.6881 15.9499 28.6879C15.9461 28.6877 15.9423 28.6866 15.9388 28.6849C15.9354 28.6831 15.9324 28.6806 15.93 28.6776C15.9245 28.6702 15.9201 28.6619 15.917 28.6527C15.9085 28.6278 15.8886 28.6221 15.873 28.604C15.7136 28.4177 15.5918 28.2478 15.5074 28.0941C15.4198 27.9343 15.3465 27.755 15.2647 27.587C15.0275 27.101 14.8101 26.5895 14.6567 26.0769C14.6275 25.9793 14.5914 25.8442 14.5484 25.6717C14.5318 25.6046 14.5184 25.5387 14.5084 25.4739C14.4947 25.3851 14.4694 25.2992 14.4586 25.2101C14.4478 25.1209 14.4357 25.0302 14.4223 24.9381C14.3741 24.6079 14.3743 24.2771 14.3732 23.9452C14.373 23.8672 14.3677 23.7839 14.3573 23.6953C14.3379 23.5289 14.3208 23.3572 14.3062 23.1803C14.2718 22.7644 14.237 22.344 14.2018 21.919C14.1931 21.8135 14.1835 21.71 14.1731 21.6085C14.1512 21.3963 14.1347 21.1873 14.1082 20.976C14.0873 20.8094 14.071 20.6506 14.0432 20.4846C14.0313 20.4141 14.0193 20.3417 14.0071 20.2672C13.9855 20.1344 13.9567 20.009 13.9208 19.8909C13.8869 19.779 13.8604 19.682 13.8415 19.6C13.7767 19.3183 13.706 19.0238 13.6293 18.7165C13.5793 18.5165 13.5297 18.3144 13.4803 18.1101C13.467 18.0551 13.4527 18.0011 13.4374 17.9482C13.4246 17.9037 13.4105 17.8511 13.3954 17.7905C13.2538 17.224 13.1101 16.6581 12.9644 16.0929C12.9189 15.9163 12.8791 15.768 12.845 15.6482C12.8387 15.6264 12.8302 15.6055 12.8194 15.5855C12.7868 15.5255 12.7532 15.4653 12.7184 15.4051C12.7039 15.3801 12.687 15.3567 12.6679 15.335C12.44 15.0776 12.1684 14.8595 11.898 14.6457C11.6834 14.476 11.4683 14.3039 11.2527 14.1294C11.0219 13.9425 10.8076 13.7391 10.6098 13.5194C10.5604 13.4644 10.5138 13.4046 10.4674 13.3462C10.4176 13.2834 10.3603 13.1997 10.2954 13.0951C10.06 12.7162 9.96531 12.3043 10.0113 11.8593C10.0173 11.8008 10.0265 11.7433 10.0387 11.687C10.0546 11.614 10.0624 11.5415 10.0833 11.4697C10.1388 11.2791 10.2128 11.0902 10.3053 10.903C10.4119 10.6878 10.5533 10.5241 10.7612 10.4073C10.8827 10.3391 11.0263 10.2862 11.1712 10.2598C11.2952 10.2372 11.4175 10.2062 11.5433 10.2086C11.657 10.211 11.7653 10.2118 11.8682 10.2111C11.9382 10.2106 12.0065 10.2152 12.0731 10.2248C12.1854 10.241 12.2907 10.2559 12.3889 10.2695C12.5048 10.2855 12.6304 10.32 12.7453 10.3494C12.9579 10.4036 13.1692 10.4769 13.379 10.5694C13.4282 10.5913 13.4737 10.6137 13.5154 10.6369C13.5775 10.6715 13.6423 10.699 13.7027 10.7366C13.9246 10.8748 14.1356 11.0199 14.3358 11.1718C14.4809 11.2818 14.6338 11.4048 14.7945 11.5407C15.0079 11.7213 15.2102 11.8954 15.4013 12.063C15.598 12.2355 15.7959 12.4035 15.995 12.5669C16.0201 12.5873 16.0473 12.6125 16.0806 12.6185C16.1358 12.6284 16.1793 12.6317 16.2109 12.6283C16.3502 12.6136 16.4901 12.5993 16.6308 12.5854C16.7099 12.5778 16.7831 12.5587 16.862 12.5467C16.965 12.5312 17.0665 12.5132 17.1664 12.4929C17.4052 12.4444 17.6847 12.3895 18.0047 12.3284C18.146 12.3013 18.2829 12.2872 18.421 12.2623C18.6034 12.2297 18.7826 12.2253 18.9642 12.223C18.9684 12.2229 18.9726 12.2217 18.9764 12.2195C18.9802 12.2173 18.9835 12.2142 18.986 12.2104ZM23.2522 14.0998C23.2615 14.1005 23.2702 14.1042 23.277 14.1104C23.2838 14.1166 23.2882 14.1249 23.2896 14.1339C23.3036 14.23 23.3471 14.3127 23.42 14.382C23.4585 14.4188 23.5104 14.449 23.5651 14.435C23.6235 14.4202 23.68 14.3999 23.7348 14.374C23.8192 14.3342 23.8593 14.2462 23.8776 14.1618C23.9087 14.0203 23.9108 13.8694 23.9108 13.7254C23.9108 13.4856 23.9662 13.1838 24.2511 13.1214C24.3247 13.1052 24.4023 13.0886 24.4841 13.0716C24.4892 13.0705 24.494 13.0682 24.498 13.0647C24.502 13.0613 24.505 13.057 24.5068 13.0521C24.5085 13.0472 24.509 13.042 24.5081 13.0369C24.5072 13.0318 24.505 13.0271 24.5016 13.0231C24.4421 12.9516 24.4001 12.872 24.3162 12.8202C24.2883 12.803 24.2891 12.7712 24.3111 12.7499C24.3533 12.7089 24.3984 12.6709 24.4464 12.636C24.4717 12.6176 24.5597 12.5472 24.5049 12.5134C24.4403 12.4734 24.375 12.4287 24.309 12.3791C24.2483 12.3333 24.1897 12.351 24.1235 12.3746C24.0651 12.3955 24.0204 12.4282 23.9894 12.4727C23.9577 12.518 23.9365 12.5712 23.8908 12.6045C23.8558 12.63 23.8174 12.6445 23.7757 12.6478C23.6605 12.6571 23.5389 12.673 23.4228 12.671C23.3302 12.6693 23.2398 12.6592 23.1506 12.6881C23.1256 12.6962 23.1018 12.7129 23.0792 12.7382C23.0246 12.7995 22.9395 12.8917 23.0423 12.9553C23.0837 12.9809 23.1261 13.0044 23.1696 13.0258C23.2373 13.059 23.2915 13.1057 23.3379 13.16C23.4221 13.2582 23.4844 13.4413 23.3654 13.5352C23.2466 13.6288 23.0833 13.6626 22.9265 13.6669C22.8751 13.6684 22.8243 13.6777 22.7731 13.6829C22.7654 13.6836 22.7584 13.6872 22.7533 13.6929C22.7483 13.6987 22.7457 13.7061 22.7461 13.7136C22.7535 13.8438 22.8213 13.9727 22.9422 14.0323C23.0376 14.0793 23.1447 14.0921 23.2522 14.0998ZM20.5397 20.1106C20.5697 20.1477 20.6084 20.1861 20.6559 20.2258C20.8585 20.3958 21.1014 20.4884 21.3638 20.5375C21.4014 20.5444 21.4362 20.5591 21.4734 20.5654C21.6014 20.5868 21.7233 20.6221 21.8529 20.6404C21.9129 20.6489 21.9733 20.6571 22.034 20.6648C22.1729 20.6827 22.3085 20.68 22.4408 20.6567C22.5285 20.6413 22.608 20.6203 22.6794 20.5936C22.874 20.5209 23.0422 20.3509 23.1417 20.1797C23.2463 19.9999 23.3325 19.8034 23.4002 19.5905C23.4438 19.4535 23.4739 19.3179 23.4907 19.1837C23.5112 19.0192 23.5089 18.8366 23.4569 18.6779C23.391 18.476 23.3635 18.2698 23.3302 18.0556C23.3084 17.914 23.2654 17.7797 23.2015 17.6527C23.0976 17.4458 22.9844 17.2695 22.8621 17.1236C22.7326 16.9693 22.5599 16.8326 22.3665 16.7585C22.2848 16.7272 22.2079 16.709 22.136 16.704C22.0398 16.6971 21.9527 16.7005 21.875 16.7141C21.7233 16.7405 21.5705 16.8024 21.4164 16.8997C21.2397 17.0113 21.081 17.1511 20.9405 17.3191C20.7183 17.5846 20.5464 17.8752 20.4249 18.1909C20.3878 18.2876 20.3542 18.3866 20.3243 18.4878C20.2394 18.7753 20.2095 19.0664 20.2345 19.3614C20.2569 19.6247 20.347 19.8629 20.5048 20.0757C20.5149 20.0892 20.5285 20.0971 20.5397 20.1106ZM16.9221 17.6462C16.8057 17.5174 16.6633 17.4153 16.4952 17.3398C16.297 17.251 16.0641 17.2275 15.8521 17.2579C15.5044 17.308 15.2069 17.5356 15.0523 17.8358C14.8891 18.1531 14.8276 18.496 14.868 18.8646C14.896 19.1203 14.9856 19.395 15.1402 19.5943C15.2862 19.7825 15.4884 19.9325 15.7233 19.9955C15.7934 20.0143 15.8715 20.0257 15.9576 20.0298C16.0538 20.0343 16.138 20.0314 16.2101 20.021C16.3593 19.9996 16.5022 19.949 16.6388 19.8692C16.6961 19.8357 16.7499 19.7931 16.8019 19.7509C16.9394 19.6387 17.0462 19.4999 17.1223 19.3345C17.1817 19.2054 17.2219 19.0937 17.2429 18.9993C17.3274 18.6187 17.2787 18.2507 17.0967 17.8954C17.0528 17.8095 16.9946 17.7264 16.9221 17.6462ZM20.8667 27.2763C20.9179 26.9225 20.8781 26.5406 20.7337 26.2195C20.632 25.9932 20.4963 25.7961 20.3267 25.6282C19.9039 25.2098 19.324 24.9452 18.722 24.9218C18.2521 24.9034 17.7728 25.0374 17.3827 25.3098C17.2327 25.4146 17.0907 25.5386 16.957 25.6818C16.8312 25.8165 16.7369 25.9461 16.6741 26.0706C16.6305 26.1571 16.5891 26.2557 16.5501 26.3662C16.53 26.4228 16.5189 26.4808 16.5003 26.5379C16.487 26.5788 16.4757 26.6217 16.4663 26.6665C16.4494 26.7474 16.4334 26.8285 16.4182 26.9097C16.3969 27.0243 16.3785 27.1892 16.3631 27.4043C16.3443 27.6672 16.3648 27.9318 16.4245 28.198C16.4409 28.2713 16.475 28.3674 16.5267 28.4863C16.5361 28.5079 16.5468 28.5277 16.5587 28.5457C16.5895 28.5921 16.6105 28.6416 16.6446 28.6871C16.7798 28.8673 16.947 29.007 17.1462 29.1063C17.3958 29.2309 17.6896 29.2908 17.9699 29.2962C18.1424 29.2995 18.3035 29.2908 18.4531 29.2701C18.5587 29.2555 18.6818 29.2303 18.8224 29.1945C19.2408 29.0877 19.6336 28.8979 19.9805 28.6416C20.0537 28.5875 20.1219 28.5248 20.1891 28.464C20.4102 28.2636 20.5815 28.0369 20.7031 27.7837C20.7891 27.6046 20.8437 27.4354 20.8667 27.2763Z" fill="white"></path></svg>